ISO-10303-21;
HEADER;
/* Generated by software containing ST-Developer
 * from STEP Tools, Inc. (www.steptools.com) 
 */
/* OPTION: using custom schema-name function */

FILE_DESCRIPTION(
/* description */ (''),
/* implementation_level */ '2;1');

FILE_NAME(
/* name */ 'Scale Cross Walk - Longitudinal Bar',
/* time_stamp */ '2025-11-19T14:05:13-05:00',
/* author */ (''),
/* organization */ (''),
/* preprocessor_version */ 'ST-DEVELOPER v19.2',
/* originating_system */ 'Rhino 8.25',
/* authorisation */ '');

FILE_SCHEMA (('CONFIG_CONTROL_DESIGN'));
ENDSEC;

DATA;
#10=SHAPE_REPRESENTATION_RELATIONSHIP('','',#1167,#24);
#11=MANIFOLD_SOLID_BREP('brep_1',#25);
#12=MANIFOLD_SOLID_BREP('brep_2',#26);
#13=MANIFOLD_SOLID_BREP('brep_3',#27);
#14=MANIFOLD_SOLID_BREP('brep_4',#28);
#15=MANIFOLD_SOLID_BREP('brep_5',#29);
#16=MANIFOLD_SOLID_BREP('brep_6',#30);
#17=MANIFOLD_SOLID_BREP('brep_7',#31);
#18=MANIFOLD_SOLID_BREP('brep_8',#32);
#19=MANIFOLD_SOLID_BREP('brep_9',#33);
#20=MANIFOLD_SOLID_BREP('brep_10',#34);
#21=MANIFOLD_SOLID_BREP('brep_11',#35);
#22=MANIFOLD_SOLID_BREP('brep_12',#36);
#23=MANIFOLD_SOLID_BREP('brep_13',#37);
#24=ADVANCED_BREP_SHAPE_REPRESENTATION('brep_rep_0',(#11,#12,#13,#14,#15,
#16,#17,#18,#19,#20,#21,#22,#23,#1247),#1166);
#25=CLOSED_SHELL('',(#38,#39,#40,#41,#42,#43));
#26=CLOSED_SHELL('',(#44,#45,#46,#47,#48,#49));
#27=CLOSED_SHELL('',(#50,#51,#52,#53,#54,#55));
#28=CLOSED_SHELL('',(#56,#57,#58,#59,#60,#61));
#29=CLOSED_SHELL('',(#62,#63,#64,#65,#66,#67));
#30=CLOSED_SHELL('',(#68,#69,#70,#71,#72,#73));
#31=CLOSED_SHELL('',(#74,#75,#76,#77,#78,#79));
#32=CLOSED_SHELL('',(#80,#81,#82,#83,#84,#85));
#33=CLOSED_SHELL('',(#86,#87,#88,#89,#90,#91));
#34=CLOSED_SHELL('',(#92,#93,#94,#95,#96,#97));
#35=CLOSED_SHELL('',(#98,#99,#100,#101,#102,#103));
#36=CLOSED_SHELL('',(#104,#105,#106,#107,#108,#109));
#37=CLOSED_SHELL('',(#110,#111,#112,#113,#114,#115));
#38=ADVANCED_FACE('',(#116),#1000,.T.);
#39=ADVANCED_FACE('',(#117),#1001,.T.);
#40=ADVANCED_FACE('',(#118),#1002,.T.);
#41=ADVANCED_FACE('',(#119),#1003,.T.);
#42=ADVANCED_FACE('',(#120),#1004,.T.);
#43=ADVANCED_FACE('',(#121),#1005,.T.);
#44=ADVANCED_FACE('',(#122),#1006,.T.);
#45=ADVANCED_FACE('',(#123),#1007,.T.);
#46=ADVANCED_FACE('',(#124),#1008,.T.);
#47=ADVANCED_FACE('',(#125),#1009,.T.);
#48=ADVANCED_FACE('',(#126),#1010,.T.);
#49=ADVANCED_FACE('',(#127),#1011,.T.);
#50=ADVANCED_FACE('',(#128),#1012,.T.);
#51=ADVANCED_FACE('',(#129),#1013,.T.);
#52=ADVANCED_FACE('',(#130),#1014,.T.);
#53=ADVANCED_FACE('',(#131),#1015,.T.);
#54=ADVANCED_FACE('',(#132),#1016,.T.);
#55=ADVANCED_FACE('',(#133),#1017,.T.);
#56=ADVANCED_FACE('',(#134),#1018,.T.);
#57=ADVANCED_FACE('',(#135),#1019,.T.);
#58=ADVANCED_FACE('',(#136),#1020,.T.);
#59=ADVANCED_FACE('',(#137),#1021,.T.);
#60=ADVANCED_FACE('',(#138),#1022,.T.);
#61=ADVANCED_FACE('',(#139),#1023,.T.);
#62=ADVANCED_FACE('',(#140),#1024,.T.);
#63=ADVANCED_FACE('',(#141),#1025,.T.);
#64=ADVANCED_FACE('',(#142),#1026,.T.);
#65=ADVANCED_FACE('',(#143),#1027,.T.);
#66=ADVANCED_FACE('',(#144),#1028,.T.);
#67=ADVANCED_FACE('',(#145),#1029,.T.);
#68=ADVANCED_FACE('',(#146),#1030,.T.);
#69=ADVANCED_FACE('',(#147),#1031,.T.);
#70=ADVANCED_FACE('',(#148),#1032,.T.);
#71=ADVANCED_FACE('',(#149),#1033,.T.);
#72=ADVANCED_FACE('',(#150),#1034,.T.);
#73=ADVANCED_FACE('',(#151),#1035,.T.);
#74=ADVANCED_FACE('',(#152),#1036,.T.);
#75=ADVANCED_FACE('',(#153),#1037,.T.);
#76=ADVANCED_FACE('',(#154),#1038,.T.);
#77=ADVANCED_FACE('',(#155),#1039,.T.);
#78=ADVANCED_FACE('',(#156),#1040,.T.);
#79=ADVANCED_FACE('',(#157),#1041,.T.);
#80=ADVANCED_FACE('',(#158),#1042,.T.);
#81=ADVANCED_FACE('',(#159),#1043,.T.);
#82=ADVANCED_FACE('',(#160),#1044,.T.);
#83=ADVANCED_FACE('',(#161),#1045,.T.);
#84=ADVANCED_FACE('',(#162),#1046,.T.);
#85=ADVANCED_FACE('',(#163),#1047,.T.);
#86=ADVANCED_FACE('',(#164),#1048,.T.);
#87=ADVANCED_FACE('',(#165),#1049,.T.);
#88=ADVANCED_FACE('',(#166),#1050,.T.);
#89=ADVANCED_FACE('',(#167),#1051,.T.);
#90=ADVANCED_FACE('',(#168),#1052,.T.);
#91=ADVANCED_FACE('',(#169),#1053,.T.);
#92=ADVANCED_FACE('',(#170),#1054,.T.);
#93=ADVANCED_FACE('',(#171),#1055,.T.);
#94=ADVANCED_FACE('',(#172),#1056,.T.);
#95=ADVANCED_FACE('',(#173),#1057,.T.);
#96=ADVANCED_FACE('',(#174),#1058,.T.);
#97=ADVANCED_FACE('',(#175),#1059,.T.);
#98=ADVANCED_FACE('',(#176),#1060,.T.);
#99=ADVANCED_FACE('',(#177),#1061,.T.);
#100=ADVANCED_FACE('',(#178),#1062,.T.);
#101=ADVANCED_FACE('',(#179),#1063,.T.);
#102=ADVANCED_FACE('',(#180),#1064,.T.);
#103=ADVANCED_FACE('',(#181),#1065,.T.);
#104=ADVANCED_FACE('',(#182),#1066,.T.);
#105=ADVANCED_FACE('',(#183),#1067,.T.);
#106=ADVANCED_FACE('',(#184),#1068,.T.);
#107=ADVANCED_FACE('',(#185),#1069,.T.);
#108=ADVANCED_FACE('',(#186),#1070,.T.);
#109=ADVANCED_FACE('',(#187),#1071,.T.);
#110=ADVANCED_FACE('',(#188),#1072,.T.);
#111=ADVANCED_FACE('',(#189),#1073,.T.);
#112=ADVANCED_FACE('',(#190),#1074,.T.);
#113=ADVANCED_FACE('',(#191),#1075,.T.);
#114=ADVANCED_FACE('',(#192),#1076,.T.);
#115=ADVANCED_FACE('',(#193),#1077,.T.);
#116=FACE_OUTER_BOUND('',#194,.T.);
#117=FACE_OUTER_BOUND('',#195,.T.);
#118=FACE_OUTER_BOUND('',#196,.T.);
#119=FACE_OUTER_BOUND('',#197,.T.);
#120=FACE_OUTER_BOUND('',#198,.T.);
#121=FACE_OUTER_BOUND('',#199,.T.);
#122=FACE_OUTER_BOUND('',#200,.T.);
#123=FACE_OUTER_BOUND('',#201,.T.);
#124=FACE_OUTER_BOUND('',#202,.T.);
#125=FACE_OUTER_BOUND('',#203,.T.);
#126=FACE_OUTER_BOUND('',#204,.T.);
#127=FACE_OUTER_BOUND('',#205,.T.);
#128=FACE_OUTER_BOUND('',#206,.T.);
#129=FACE_OUTER_BOUND('',#207,.T.);
#130=FACE_OUTER_BOUND('',#208,.T.);
#131=FACE_OUTER_BOUND('',#209,.T.);
#132=FACE_OUTER_BOUND('',#210,.T.);
#133=FACE_OUTER_BOUND('',#211,.T.);
#134=FACE_OUTER_BOUND('',#212,.T.);
#135=FACE_OUTER_BOUND('',#213,.T.);
#136=FACE_OUTER_BOUND('',#214,.T.);
#137=FACE_OUTER_BOUND('',#215,.T.);
#138=FACE_OUTER_BOUND('',#216,.T.);
#139=FACE_OUTER_BOUND('',#217,.T.);
#140=FACE_OUTER_BOUND('',#218,.T.);
#141=FACE_OUTER_BOUND('',#219,.T.);
#142=FACE_OUTER_BOUND('',#220,.T.);
#143=FACE_OUTER_BOUND('',#221,.T.);
#144=FACE_OUTER_BOUND('',#222,.T.);
#145=FACE_OUTER_BOUND('',#223,.T.);
#146=FACE_OUTER_BOUND('',#224,.T.);
#147=FACE_OUTER_BOUND('',#225,.T.);
#148=FACE_OUTER_BOUND('',#226,.T.);
#149=FACE_OUTER_BOUND('',#227,.T.);
#150=FACE_OUTER_BOUND('',#228,.T.);
#151=FACE_OUTER_BOUND('',#229,.T.);
#152=FACE_OUTER_BOUND('',#230,.T.);
#153=FACE_OUTER_BOUND('',#231,.T.);
#154=FACE_OUTER_BOUND('',#232,.T.);
#155=FACE_OUTER_BOUND('',#233,.T.);
#156=FACE_OUTER_BOUND('',#234,.T.);
#157=FACE_OUTER_BOUND('',#235,.T.);
#158=FACE_OUTER_BOUND('',#236,.T.);
#159=FACE_OUTER_BOUND('',#237,.T.);
#160=FACE_OUTER_BOUND('',#238,.T.);
#161=FACE_OUTER_BOUND('',#239,.T.);
#162=FACE_OUTER_BOUND('',#240,.T.);
#163=FACE_OUTER_BOUND('',#241,.T.);
#164=FACE_OUTER_BOUND('',#242,.T.);
#165=FACE_OUTER_BOUND('',#243,.T.);
#166=FACE_OUTER_BOUND('',#244,.T.);
#167=FACE_OUTER_BOUND('',#245,.T.);
#168=FACE_OUTER_BOUND('',#246,.T.);
#169=FACE_OUTER_BOUND('',#247,.T.);
#170=FACE_OUTER_BOUND('',#248,.T.);
#171=FACE_OUTER_BOUND('',#249,.T.);
#172=FACE_OUTER_BOUND('',#250,.T.);
#173=FACE_OUTER_BOUND('',#251,.T.);
#174=FACE_OUTER_BOUND('',#252,.T.);
#175=FACE_OUTER_BOUND('',#253,.T.);
#176=FACE_OUTER_BOUND('',#254,.T.);
#177=FACE_OUTER_BOUND('',#255,.T.);
#178=FACE_OUTER_BOUND('',#256,.T.);
#179=FACE_OUTER_BOUND('',#257,.T.);
#180=FACE_OUTER_BOUND('',#258,.T.);
#181=FACE_OUTER_BOUND('',#259,.T.);
#182=FACE_OUTER_BOUND('',#260,.T.);
#183=FACE_OUTER_BOUND('',#261,.T.);
#184=FACE_OUTER_BOUND('',#262,.T.);
#185=FACE_OUTER_BOUND('',#263,.T.);
#186=FACE_OUTER_BOUND('',#264,.T.);
#187=FACE_OUTER_BOUND('',#265,.T.);
#188=FACE_OUTER_BOUND('',#266,.T.);
#189=FACE_OUTER_BOUND('',#267,.T.);
#190=FACE_OUTER_BOUND('',#268,.T.);
#191=FACE_OUTER_BOUND('',#269,.T.);
#192=FACE_OUTER_BOUND('',#270,.T.);
#193=FACE_OUTER_BOUND('',#271,.T.);
#194=EDGE_LOOP('',(#272,#273,#274,#275));
#195=EDGE_LOOP('',(#276,#277,#278,#279));
#196=EDGE_LOOP('',(#280,#281,#282,#283));
#197=EDGE_LOOP('',(#284,#285,#286,#287));
#198=EDGE_LOOP('',(#288,#289,#290,#291));
#199=EDGE_LOOP('',(#292,#293,#294,#295));
#200=EDGE_LOOP('',(#296,#297,#298,#299));
#201=EDGE_LOOP('',(#300,#301,#302,#303));
#202=EDGE_LOOP('',(#304,#305,#306,#307));
#203=EDGE_LOOP('',(#308,#309,#310,#311));
#204=EDGE_LOOP('',(#312,#313,#314,#315));
#205=EDGE_LOOP('',(#316,#317,#318,#319));
#206=EDGE_LOOP('',(#320,#321,#322,#323));
#207=EDGE_LOOP('',(#324,#325,#326,#327));
#208=EDGE_LOOP('',(#328,#329,#330,#331));
#209=EDGE_LOOP('',(#332,#333,#334,#335));
#210=EDGE_LOOP('',(#336,#337,#338,#339));
#211=EDGE_LOOP('',(#340,#341,#342,#343));
#212=EDGE_LOOP('',(#344,#345,#346,#347));
#213=EDGE_LOOP('',(#348,#349,#350,#351));
#214=EDGE_LOOP('',(#352,#353,#354,#355));
#215=EDGE_LOOP('',(#356,#357,#358,#359));
#216=EDGE_LOOP('',(#360,#361,#362,#363));
#217=EDGE_LOOP('',(#364,#365,#366,#367));
#218=EDGE_LOOP('',(#368,#369,#370,#371));
#219=EDGE_LOOP('',(#372,#373,#374,#375));
#220=EDGE_LOOP('',(#376,#377,#378,#379));
#221=EDGE_LOOP('',(#380,#381,#382,#383));
#222=EDGE_LOOP('',(#384,#385,#386,#387));
#223=EDGE_LOOP('',(#388,#389,#390,#391));
#224=EDGE_LOOP('',(#392,#393,#394,#395));
#225=EDGE_LOOP('',(#396,#397,#398,#399));
#226=EDGE_LOOP('',(#400,#401,#402,#403));
#227=EDGE_LOOP('',(#404,#405,#406,#407));
#228=EDGE_LOOP('',(#408,#409,#410,#411));
#229=EDGE_LOOP('',(#412,#413,#414,#415));
#230=EDGE_LOOP('',(#416,#417,#418,#419));
#231=EDGE_LOOP('',(#420,#421,#422,#423));
#232=EDGE_LOOP('',(#424,#425,#426,#427));
#233=EDGE_LOOP('',(#428,#429,#430,#431));
#234=EDGE_LOOP('',(#432,#433,#434,#435));
#235=EDGE_LOOP('',(#436,#437,#438,#439));
#236=EDGE_LOOP('',(#440,#441,#442,#443));
#237=EDGE_LOOP('',(#444,#445,#446,#447));
#238=EDGE_LOOP('',(#448,#449,#450,#451));
#239=EDGE_LOOP('',(#452,#453,#454,#455));
#240=EDGE_LOOP('',(#456,#457,#458,#459));
#241=EDGE_LOOP('',(#460,#461,#462,#463));
#242=EDGE_LOOP('',(#464,#465,#466,#467));
#243=EDGE_LOOP('',(#468,#469,#470,#471));
#244=EDGE_LOOP('',(#472,#473,#474,#475));
#245=EDGE_LOOP('',(#476,#477,#478,#479));
#246=EDGE_LOOP('',(#480,#481,#482,#483));
#247=EDGE_LOOP('',(#484,#485,#486,#487));
#248=EDGE_LOOP('',(#488,#489,#490,#491));
#249=EDGE_LOOP('',(#492,#493,#494,#495));
#250=EDGE_LOOP('',(#496,#497,#498,#499));
#251=EDGE_LOOP('',(#500,#501,#502,#503));
#252=EDGE_LOOP('',(#504,#505,#506,#507));
#253=EDGE_LOOP('',(#508,#509,#510,#511));
#254=EDGE_LOOP('',(#512,#513,#514,#515));
#255=EDGE_LOOP('',(#516,#517,#518,#519));
#256=EDGE_LOOP('',(#520,#521,#522,#523));
#257=EDGE_LOOP('',(#524,#525,#526,#527));
#258=EDGE_LOOP('',(#528,#529,#530,#531));
#259=EDGE_LOOP('',(#532,#533,#534,#535));
#260=EDGE_LOOP('',(#536,#537,#538,#539));
#261=EDGE_LOOP('',(#540,#541,#542,#543));
#262=EDGE_LOOP('',(#544,#545,#546,#547));
#263=EDGE_LOOP('',(#548,#549,#550,#551));
#264=EDGE_LOOP('',(#552,#553,#554,#555));
#265=EDGE_LOOP('',(#556,#557,#558,#559));
#266=EDGE_LOOP('',(#560,#561,#562,#563));
#267=EDGE_LOOP('',(#564,#565,#566,#567));
#268=EDGE_LOOP('',(#568,#569,#570,#571));
#269=EDGE_LOOP('',(#572,#573,#574,#575));
#270=EDGE_LOOP('',(#576,#577,#578,#579));
#271=EDGE_LOOP('',(#580,#581,#582,#583));
#272=ORIENTED_EDGE('',*,*,#584,.T.);
#273=ORIENTED_EDGE('',*,*,#593,.T.);
#274=ORIENTED_EDGE('',*,*,#588,.F.);
#275=ORIENTED_EDGE('',*,*,#592,.F.);
#276=ORIENTED_EDGE('',*,*,#585,.T.);
#277=ORIENTED_EDGE('',*,*,#594,.T.);
#278=ORIENTED_EDGE('',*,*,#589,.F.);
#279=ORIENTED_EDGE('',*,*,#593,.F.);
#280=ORIENTED_EDGE('',*,*,#586,.T.);
#281=ORIENTED_EDGE('',*,*,#595,.T.);
#282=ORIENTED_EDGE('',*,*,#590,.F.);
#283=ORIENTED_EDGE('',*,*,#594,.F.);
#284=ORIENTED_EDGE('',*,*,#587,.T.);
#285=ORIENTED_EDGE('',*,*,#592,.T.);
#286=ORIENTED_EDGE('',*,*,#591,.F.);
#287=ORIENTED_EDGE('',*,*,#595,.F.);
#288=ORIENTED_EDGE('',*,*,#587,.F.);
#289=ORIENTED_EDGE('',*,*,#586,.F.);
#290=ORIENTED_EDGE('',*,*,#585,.F.);
#291=ORIENTED_EDGE('',*,*,#584,.F.);
#292=ORIENTED_EDGE('',*,*,#588,.T.);
#293=ORIENTED_EDGE('',*,*,#589,.T.);
#294=ORIENTED_EDGE('',*,*,#590,.T.);
#295=ORIENTED_EDGE('',*,*,#591,.T.);
#296=ORIENTED_EDGE('',*,*,#596,.T.);
#297=ORIENTED_EDGE('',*,*,#597,.T.);
#298=ORIENTED_EDGE('',*,*,#598,.F.);
#299=ORIENTED_EDGE('',*,*,#599,.F.);
#300=ORIENTED_EDGE('',*,*,#600,.T.);
#301=ORIENTED_EDGE('',*,*,#601,.T.);
#302=ORIENTED_EDGE('',*,*,#602,.F.);
#303=ORIENTED_EDGE('',*,*,#597,.F.);
#304=ORIENTED_EDGE('',*,*,#603,.T.);
#305=ORIENTED_EDGE('',*,*,#604,.T.);
#306=ORIENTED_EDGE('',*,*,#605,.F.);
#307=ORIENTED_EDGE('',*,*,#601,.F.);
#308=ORIENTED_EDGE('',*,*,#606,.T.);
#309=ORIENTED_EDGE('',*,*,#599,.T.);
#310=ORIENTED_EDGE('',*,*,#607,.F.);
#311=ORIENTED_EDGE('',*,*,#604,.F.);
#312=ORIENTED_EDGE('',*,*,#606,.F.);
#313=ORIENTED_EDGE('',*,*,#603,.F.);
#314=ORIENTED_EDGE('',*,*,#600,.F.);
#315=ORIENTED_EDGE('',*,*,#596,.F.);
#316=ORIENTED_EDGE('',*,*,#598,.T.);
#317=ORIENTED_EDGE('',*,*,#602,.T.);
#318=ORIENTED_EDGE('',*,*,#605,.T.);
#319=ORIENTED_EDGE('',*,*,#607,.T.);
#320=ORIENTED_EDGE('',*,*,#608,.T.);
#321=ORIENTED_EDGE('',*,*,#609,.T.);
#322=ORIENTED_EDGE('',*,*,#610,.F.);
#323=ORIENTED_EDGE('',*,*,#611,.F.);
#324=ORIENTED_EDGE('',*,*,#612,.T.);
#325=ORIENTED_EDGE('',*,*,#613,.T.);
#326=ORIENTED_EDGE('',*,*,#614,.F.);
#327=ORIENTED_EDGE('',*,*,#609,.F.);
#328=ORIENTED_EDGE('',*,*,#615,.T.);
#329=ORIENTED_EDGE('',*,*,#616,.T.);
#330=ORIENTED_EDGE('',*,*,#617,.F.);
#331=ORIENTED_EDGE('',*,*,#613,.F.);
#332=ORIENTED_EDGE('',*,*,#618,.T.);
#333=ORIENTED_EDGE('',*,*,#611,.T.);
#334=ORIENTED_EDGE('',*,*,#619,.F.);
#335=ORIENTED_EDGE('',*,*,#616,.F.);
#336=ORIENTED_EDGE('',*,*,#618,.F.);
#337=ORIENTED_EDGE('',*,*,#615,.F.);
#338=ORIENTED_EDGE('',*,*,#612,.F.);
#339=ORIENTED_EDGE('',*,*,#608,.F.);
#340=ORIENTED_EDGE('',*,*,#610,.T.);
#341=ORIENTED_EDGE('',*,*,#614,.T.);
#342=ORIENTED_EDGE('',*,*,#617,.T.);
#343=ORIENTED_EDGE('',*,*,#619,.T.);
#344=ORIENTED_EDGE('',*,*,#620,.T.);
#345=ORIENTED_EDGE('',*,*,#621,.T.);
#346=ORIENTED_EDGE('',*,*,#622,.F.);
#347=ORIENTED_EDGE('',*,*,#623,.F.);
#348=ORIENTED_EDGE('',*,*,#624,.T.);
#349=ORIENTED_EDGE('',*,*,#625,.T.);
#350=ORIENTED_EDGE('',*,*,#626,.F.);
#351=ORIENTED_EDGE('',*,*,#621,.F.);
#352=ORIENTED_EDGE('',*,*,#627,.T.);
#353=ORIENTED_EDGE('',*,*,#628,.T.);
#354=ORIENTED_EDGE('',*,*,#629,.F.);
#355=ORIENTED_EDGE('',*,*,#625,.F.);
#356=ORIENTED_EDGE('',*,*,#630,.T.);
#357=ORIENTED_EDGE('',*,*,#623,.T.);
#358=ORIENTED_EDGE('',*,*,#631,.F.);
#359=ORIENTED_EDGE('',*,*,#628,.F.);
#360=ORIENTED_EDGE('',*,*,#630,.F.);
#361=ORIENTED_EDGE('',*,*,#627,.F.);
#362=ORIENTED_EDGE('',*,*,#624,.F.);
#363=ORIENTED_EDGE('',*,*,#620,.F.);
#364=ORIENTED_EDGE('',*,*,#622,.T.);
#365=ORIENTED_EDGE('',*,*,#626,.T.);
#366=ORIENTED_EDGE('',*,*,#629,.T.);
#367=ORIENTED_EDGE('',*,*,#631,.T.);
#368=ORIENTED_EDGE('',*,*,#632,.T.);
#369=ORIENTED_EDGE('',*,*,#633,.T.);
#370=ORIENTED_EDGE('',*,*,#634,.F.);
#371=ORIENTED_EDGE('',*,*,#635,.F.);
#372=ORIENTED_EDGE('',*,*,#636,.T.);
#373=ORIENTED_EDGE('',*,*,#637,.T.);
#374=ORIENTED_EDGE('',*,*,#638,.F.);
#375=ORIENTED_EDGE('',*,*,#633,.F.);
#376=ORIENTED_EDGE('',*,*,#639,.T.);
#377=ORIENTED_EDGE('',*,*,#640,.T.);
#378=ORIENTED_EDGE('',*,*,#641,.F.);
#379=ORIENTED_EDGE('',*,*,#637,.F.);
#380=ORIENTED_EDGE('',*,*,#642,.T.);
#381=ORIENTED_EDGE('',*,*,#635,.T.);
#382=ORIENTED_EDGE('',*,*,#643,.F.);
#383=ORIENTED_EDGE('',*,*,#640,.F.);
#384=ORIENTED_EDGE('',*,*,#642,.F.);
#385=ORIENTED_EDGE('',*,*,#639,.F.);
#386=ORIENTED_EDGE('',*,*,#636,.F.);
#387=ORIENTED_EDGE('',*,*,#632,.F.);
#388=ORIENTED_EDGE('',*,*,#634,.T.);
#389=ORIENTED_EDGE('',*,*,#638,.T.);
#390=ORIENTED_EDGE('',*,*,#641,.T.);
#391=ORIENTED_EDGE('',*,*,#643,.T.);
#392=ORIENTED_EDGE('',*,*,#644,.T.);
#393=ORIENTED_EDGE('',*,*,#645,.T.);
#394=ORIENTED_EDGE('',*,*,#646,.F.);
#395=ORIENTED_EDGE('',*,*,#647,.F.);
#396=ORIENTED_EDGE('',*,*,#648,.T.);
#397=ORIENTED_EDGE('',*,*,#649,.T.);
#398=ORIENTED_EDGE('',*,*,#650,.F.);
#399=ORIENTED_EDGE('',*,*,#645,.F.);
#400=ORIENTED_EDGE('',*,*,#651,.T.);
#401=ORIENTED_EDGE('',*,*,#652,.T.);
#402=ORIENTED_EDGE('',*,*,#653,.F.);
#403=ORIENTED_EDGE('',*,*,#649,.F.);
#404=ORIENTED_EDGE('',*,*,#654,.T.);
#405=ORIENTED_EDGE('',*,*,#647,.T.);
#406=ORIENTED_EDGE('',*,*,#655,.F.);
#407=ORIENTED_EDGE('',*,*,#652,.F.);
#408=ORIENTED_EDGE('',*,*,#654,.F.);
#409=ORIENTED_EDGE('',*,*,#651,.F.);
#410=ORIENTED_EDGE('',*,*,#648,.F.);
#411=ORIENTED_EDGE('',*,*,#644,.F.);
#412=ORIENTED_EDGE('',*,*,#646,.T.);
#413=ORIENTED_EDGE('',*,*,#650,.T.);
#414=ORIENTED_EDGE('',*,*,#653,.T.);
#415=ORIENTED_EDGE('',*,*,#655,.T.);
#416=ORIENTED_EDGE('',*,*,#656,.T.);
#417=ORIENTED_EDGE('',*,*,#657,.T.);
#418=ORIENTED_EDGE('',*,*,#658,.F.);
#419=ORIENTED_EDGE('',*,*,#659,.F.);
#420=ORIENTED_EDGE('',*,*,#660,.T.);
#421=ORIENTED_EDGE('',*,*,#661,.T.);
#422=ORIENTED_EDGE('',*,*,#662,.F.);
#423=ORIENTED_EDGE('',*,*,#657,.F.);
#424=ORIENTED_EDGE('',*,*,#663,.T.);
#425=ORIENTED_EDGE('',*,*,#664,.T.);
#426=ORIENTED_EDGE('',*,*,#665,.F.);
#427=ORIENTED_EDGE('',*,*,#661,.F.);
#428=ORIENTED_EDGE('',*,*,#666,.T.);
#429=ORIENTED_EDGE('',*,*,#659,.T.);
#430=ORIENTED_EDGE('',*,*,#667,.F.);
#431=ORIENTED_EDGE('',*,*,#664,.F.);
#432=ORIENTED_EDGE('',*,*,#666,.F.);
#433=ORIENTED_EDGE('',*,*,#663,.F.);
#434=ORIENTED_EDGE('',*,*,#660,.F.);
#435=ORIENTED_EDGE('',*,*,#656,.F.);
#436=ORIENTED_EDGE('',*,*,#658,.T.);
#437=ORIENTED_EDGE('',*,*,#662,.T.);
#438=ORIENTED_EDGE('',*,*,#665,.T.);
#439=ORIENTED_EDGE('',*,*,#667,.T.);
#440=ORIENTED_EDGE('',*,*,#668,.T.);
#441=ORIENTED_EDGE('',*,*,#669,.T.);
#442=ORIENTED_EDGE('',*,*,#670,.F.);
#443=ORIENTED_EDGE('',*,*,#671,.F.);
#444=ORIENTED_EDGE('',*,*,#672,.T.);
#445=ORIENTED_EDGE('',*,*,#673,.T.);
#446=ORIENTED_EDGE('',*,*,#674,.F.);
#447=ORIENTED_EDGE('',*,*,#669,.F.);
#448=ORIENTED_EDGE('',*,*,#675,.T.);
#449=ORIENTED_EDGE('',*,*,#676,.T.);
#450=ORIENTED_EDGE('',*,*,#677,.F.);
#451=ORIENTED_EDGE('',*,*,#673,.F.);
#452=ORIENTED_EDGE('',*,*,#678,.T.);
#453=ORIENTED_EDGE('',*,*,#671,.T.);
#454=ORIENTED_EDGE('',*,*,#679,.F.);
#455=ORIENTED_EDGE('',*,*,#676,.F.);
#456=ORIENTED_EDGE('',*,*,#678,.F.);
#457=ORIENTED_EDGE('',*,*,#675,.F.);
#458=ORIENTED_EDGE('',*,*,#672,.F.);
#459=ORIENTED_EDGE('',*,*,#668,.F.);
#460=ORIENTED_EDGE('',*,*,#670,.T.);
#461=ORIENTED_EDGE('',*,*,#674,.T.);
#462=ORIENTED_EDGE('',*,*,#677,.T.);
#463=ORIENTED_EDGE('',*,*,#679,.T.);
#464=ORIENTED_EDGE('',*,*,#680,.T.);
#465=ORIENTED_EDGE('',*,*,#681,.T.);
#466=ORIENTED_EDGE('',*,*,#682,.F.);
#467=ORIENTED_EDGE('',*,*,#683,.F.);
#468=ORIENTED_EDGE('',*,*,#684,.T.);
#469=ORIENTED_EDGE('',*,*,#685,.T.);
#470=ORIENTED_EDGE('',*,*,#686,.F.);
#471=ORIENTED_EDGE('',*,*,#681,.F.);
#472=ORIENTED_EDGE('',*,*,#687,.T.);
#473=ORIENTED_EDGE('',*,*,#688,.T.);
#474=ORIENTED_EDGE('',*,*,#689,.F.);
#475=ORIENTED_EDGE('',*,*,#685,.F.);
#476=ORIENTED_EDGE('',*,*,#690,.T.);
#477=ORIENTED_EDGE('',*,*,#683,.T.);
#478=ORIENTED_EDGE('',*,*,#691,.F.);
#479=ORIENTED_EDGE('',*,*,#688,.F.);
#480=ORIENTED_EDGE('',*,*,#690,.F.);
#481=ORIENTED_EDGE('',*,*,#687,.F.);
#482=ORIENTED_EDGE('',*,*,#684,.F.);
#483=ORIENTED_EDGE('',*,*,#680,.F.);
#484=ORIENTED_EDGE('',*,*,#682,.T.);
#485=ORIENTED_EDGE('',*,*,#686,.T.);
#486=ORIENTED_EDGE('',*,*,#689,.T.);
#487=ORIENTED_EDGE('',*,*,#691,.T.);
#488=ORIENTED_EDGE('',*,*,#692,.T.);
#489=ORIENTED_EDGE('',*,*,#693,.T.);
#490=ORIENTED_EDGE('',*,*,#694,.F.);
#491=ORIENTED_EDGE('',*,*,#695,.F.);
#492=ORIENTED_EDGE('',*,*,#696,.T.);
#493=ORIENTED_EDGE('',*,*,#697,.T.);
#494=ORIENTED_EDGE('',*,*,#698,.F.);
#495=ORIENTED_EDGE('',*,*,#693,.F.);
#496=ORIENTED_EDGE('',*,*,#699,.T.);
#497=ORIENTED_EDGE('',*,*,#700,.T.);
#498=ORIENTED_EDGE('',*,*,#701,.F.);
#499=ORIENTED_EDGE('',*,*,#697,.F.);
#500=ORIENTED_EDGE('',*,*,#702,.T.);
#501=ORIENTED_EDGE('',*,*,#695,.T.);
#502=ORIENTED_EDGE('',*,*,#703,.F.);
#503=ORIENTED_EDGE('',*,*,#700,.F.);
#504=ORIENTED_EDGE('',*,*,#702,.F.);
#505=ORIENTED_EDGE('',*,*,#699,.F.);
#506=ORIENTED_EDGE('',*,*,#696,.F.);
#507=ORIENTED_EDGE('',*,*,#692,.F.);
#508=ORIENTED_EDGE('',*,*,#694,.T.);
#509=ORIENTED_EDGE('',*,*,#698,.T.);
#510=ORIENTED_EDGE('',*,*,#701,.T.);
#511=ORIENTED_EDGE('',*,*,#703,.T.);
#512=ORIENTED_EDGE('',*,*,#704,.T.);
#513=ORIENTED_EDGE('',*,*,#705,.T.);
#514=ORIENTED_EDGE('',*,*,#706,.F.);
#515=ORIENTED_EDGE('',*,*,#707,.F.);
#516=ORIENTED_EDGE('',*,*,#708,.T.);
#517=ORIENTED_EDGE('',*,*,#709,.T.);
#518=ORIENTED_EDGE('',*,*,#710,.F.);
#519=ORIENTED_EDGE('',*,*,#705,.F.);
#520=ORIENTED_EDGE('',*,*,#711,.T.);
#521=ORIENTED_EDGE('',*,*,#712,.T.);
#522=ORIENTED_EDGE('',*,*,#713,.F.);
#523=ORIENTED_EDGE('',*,*,#709,.F.);
#524=ORIENTED_EDGE('',*,*,#714,.T.);
#525=ORIENTED_EDGE('',*,*,#707,.T.);
#526=ORIENTED_EDGE('',*,*,#715,.F.);
#527=ORIENTED_EDGE('',*,*,#712,.F.);
#528=ORIENTED_EDGE('',*,*,#714,.F.);
#529=ORIENTED_EDGE('',*,*,#711,.F.);
#530=ORIENTED_EDGE('',*,*,#708,.F.);
#531=ORIENTED_EDGE('',*,*,#704,.F.);
#532=ORIENTED_EDGE('',*,*,#706,.T.);
#533=ORIENTED_EDGE('',*,*,#710,.T.);
#534=ORIENTED_EDGE('',*,*,#713,.T.);
#535=ORIENTED_EDGE('',*,*,#715,.T.);
#536=ORIENTED_EDGE('',*,*,#716,.T.);
#537=ORIENTED_EDGE('',*,*,#717,.T.);
#538=ORIENTED_EDGE('',*,*,#718,.F.);
#539=ORIENTED_EDGE('',*,*,#719,.F.);
#540=ORIENTED_EDGE('',*,*,#720,.T.);
#541=ORIENTED_EDGE('',*,*,#721,.T.);
#542=ORIENTED_EDGE('',*,*,#722,.F.);
#543=ORIENTED_EDGE('',*,*,#717,.F.);
#544=ORIENTED_EDGE('',*,*,#723,.T.);
#545=ORIENTED_EDGE('',*,*,#724,.T.);
#546=ORIENTED_EDGE('',*,*,#725,.F.);
#547=ORIENTED_EDGE('',*,*,#721,.F.);
#548=ORIENTED_EDGE('',*,*,#726,.T.);
#549=ORIENTED_EDGE('',*,*,#719,.T.);
#550=ORIENTED_EDGE('',*,*,#727,.F.);
#551=ORIENTED_EDGE('',*,*,#724,.F.);
#552=ORIENTED_EDGE('',*,*,#726,.F.);
#553=ORIENTED_EDGE('',*,*,#723,.F.);
#554=ORIENTED_EDGE('',*,*,#720,.F.);
#555=ORIENTED_EDGE('',*,*,#716,.F.);
#556=ORIENTED_EDGE('',*,*,#718,.T.);
#557=ORIENTED_EDGE('',*,*,#722,.T.);
#558=ORIENTED_EDGE('',*,*,#725,.T.);
#559=ORIENTED_EDGE('',*,*,#727,.T.);
#560=ORIENTED_EDGE('',*,*,#728,.T.);
#561=ORIENTED_EDGE('',*,*,#729,.T.);
#562=ORIENTED_EDGE('',*,*,#730,.F.);
#563=ORIENTED_EDGE('',*,*,#731,.F.);
#564=ORIENTED_EDGE('',*,*,#732,.T.);
#565=ORIENTED_EDGE('',*,*,#733,.T.);
#566=ORIENTED_EDGE('',*,*,#734,.F.);
#567=ORIENTED_EDGE('',*,*,#729,.F.);
#568=ORIENTED_EDGE('',*,*,#735,.T.);
#569=ORIENTED_EDGE('',*,*,#736,.T.);
#570=ORIENTED_EDGE('',*,*,#737,.F.);
#571=ORIENTED_EDGE('',*,*,#733,.F.);
#572=ORIENTED_EDGE('',*,*,#738,.T.);
#573=ORIENTED_EDGE('',*,*,#731,.T.);
#574=ORIENTED_EDGE('',*,*,#739,.F.);
#575=ORIENTED_EDGE('',*,*,#736,.F.);
#576=ORIENTED_EDGE('',*,*,#738,.F.);
#577=ORIENTED_EDGE('',*,*,#735,.F.);
#578=ORIENTED_EDGE('',*,*,#732,.F.);
#579=ORIENTED_EDGE('',*,*,#728,.F.);
#580=ORIENTED_EDGE('',*,*,#730,.T.);
#581=ORIENTED_EDGE('',*,*,#734,.T.);
#582=ORIENTED_EDGE('',*,*,#737,.T.);
#583=ORIENTED_EDGE('',*,*,#739,.T.);
#584=EDGE_CURVE('',#896,#897,#740,.T.);
#585=EDGE_CURVE('',#897,#898,#741,.T.);
#586=EDGE_CURVE('',#898,#899,#742,.T.);
#587=EDGE_CURVE('',#899,#896,#743,.T.);
#588=EDGE_CURVE('',#900,#901,#744,.T.);
#589=EDGE_CURVE('',#901,#902,#745,.T.);
#590=EDGE_CURVE('',#902,#903,#746,.T.);
#591=EDGE_CURVE('',#903,#900,#747,.T.);
#592=EDGE_CURVE('',#896,#900,#748,.T.);
#593=EDGE_CURVE('',#897,#901,#749,.T.);
#594=EDGE_CURVE('',#898,#902,#750,.T.);
#595=EDGE_CURVE('',#899,#903,#751,.T.);
#596=EDGE_CURVE('',#904,#905,#752,.T.);
#597=EDGE_CURVE('',#905,#906,#753,.T.);
#598=EDGE_CURVE('',#907,#906,#754,.T.);
#599=EDGE_CURVE('',#904,#907,#755,.T.);
#600=EDGE_CURVE('',#905,#908,#756,.T.);
#601=EDGE_CURVE('',#908,#909,#757,.T.);
#602=EDGE_CURVE('',#906,#909,#758,.T.);
#603=EDGE_CURVE('',#908,#910,#759,.T.);
#604=EDGE_CURVE('',#910,#911,#760,.T.);
#605=EDGE_CURVE('',#909,#911,#761,.T.);
#606=EDGE_CURVE('',#910,#904,#762,.T.);
#607=EDGE_CURVE('',#911,#907,#763,.T.);
#608=EDGE_CURVE('',#912,#913,#764,.T.);
#609=EDGE_CURVE('',#913,#914,#765,.T.);
#610=EDGE_CURVE('',#915,#914,#766,.T.);
#611=EDGE_CURVE('',#912,#915,#767,.T.);
#612=EDGE_CURVE('',#913,#916,#768,.T.);
#613=EDGE_CURVE('',#916,#917,#769,.T.);
#614=EDGE_CURVE('',#914,#917,#770,.T.);
#615=EDGE_CURVE('',#916,#918,#771,.T.);
#616=EDGE_CURVE('',#918,#919,#772,.T.);
#617=EDGE_CURVE('',#917,#919,#773,.T.);
#618=EDGE_CURVE('',#918,#912,#774,.T.);
#619=EDGE_CURVE('',#919,#915,#775,.T.);
#620=EDGE_CURVE('',#920,#921,#776,.T.);
#621=EDGE_CURVE('',#921,#922,#777,.T.);
#622=EDGE_CURVE('',#923,#922,#778,.T.);
#623=EDGE_CURVE('',#920,#923,#779,.T.);
#624=EDGE_CURVE('',#921,#924,#780,.T.);
#625=EDGE_CURVE('',#924,#925,#781,.T.);
#626=EDGE_CURVE('',#922,#925,#782,.T.);
#627=EDGE_CURVE('',#924,#926,#783,.T.);
#628=EDGE_CURVE('',#926,#927,#784,.T.);
#629=EDGE_CURVE('',#925,#927,#785,.T.);
#630=EDGE_CURVE('',#926,#920,#786,.T.);
#631=EDGE_CURVE('',#927,#923,#787,.T.);
#632=EDGE_CURVE('',#928,#929,#788,.T.);
#633=EDGE_CURVE('',#929,#930,#789,.T.);
#634=EDGE_CURVE('',#931,#930,#790,.T.);
#635=EDGE_CURVE('',#928,#931,#791,.T.);
#636=EDGE_CURVE('',#929,#932,#792,.T.);
#637=EDGE_CURVE('',#932,#933,#793,.T.);
#638=EDGE_CURVE('',#930,#933,#794,.T.);
#639=EDGE_CURVE('',#932,#934,#795,.T.);
#640=EDGE_CURVE('',#934,#935,#796,.T.);
#641=EDGE_CURVE('',#933,#935,#797,.T.);
#642=EDGE_CURVE('',#934,#928,#798,.T.);
#643=EDGE_CURVE('',#935,#931,#799,.T.);
#644=EDGE_CURVE('',#936,#937,#800,.T.);
#645=EDGE_CURVE('',#937,#938,#801,.T.);
#646=EDGE_CURVE('',#939,#938,#802,.T.);
#647=EDGE_CURVE('',#936,#939,#803,.T.);
#648=EDGE_CURVE('',#937,#940,#804,.T.);
#649=EDGE_CURVE('',#940,#941,#805,.T.);
#650=EDGE_CURVE('',#938,#941,#806,.T.);
#651=EDGE_CURVE('',#940,#942,#807,.T.);
#652=EDGE_CURVE('',#942,#943,#808,.T.);
#653=EDGE_CURVE('',#941,#943,#809,.T.);
#654=EDGE_CURVE('',#942,#936,#810,.T.);
#655=EDGE_CURVE('',#943,#939,#811,.T.);
#656=EDGE_CURVE('',#944,#945,#812,.T.);
#657=EDGE_CURVE('',#945,#946,#813,.T.);
#658=EDGE_CURVE('',#947,#946,#814,.T.);
#659=EDGE_CURVE('',#944,#947,#815,.T.);
#660=EDGE_CURVE('',#945,#948,#816,.T.);
#661=EDGE_CURVE('',#948,#949,#817,.T.);
#662=EDGE_CURVE('',#946,#949,#818,.T.);
#663=EDGE_CURVE('',#948,#950,#819,.T.);
#664=EDGE_CURVE('',#950,#951,#820,.T.);
#665=EDGE_CURVE('',#949,#951,#821,.T.);
#666=EDGE_CURVE('',#950,#944,#822,.T.);
#667=EDGE_CURVE('',#951,#947,#823,.T.);
#668=EDGE_CURVE('',#952,#953,#824,.T.);
#669=EDGE_CURVE('',#953,#954,#825,.T.);
#670=EDGE_CURVE('',#955,#954,#826,.T.);
#671=EDGE_CURVE('',#952,#955,#827,.T.);
#672=EDGE_CURVE('',#953,#956,#828,.T.);
#673=EDGE_CURVE('',#956,#957,#829,.T.);
#674=EDGE_CURVE('',#954,#957,#830,.T.);
#675=EDGE_CURVE('',#956,#958,#831,.T.);
#676=EDGE_CURVE('',#958,#959,#832,.T.);
#677=EDGE_CURVE('',#957,#959,#833,.T.);
#678=EDGE_CURVE('',#958,#952,#834,.T.);
#679=EDGE_CURVE('',#959,#955,#835,.T.);
#680=EDGE_CURVE('',#960,#961,#836,.T.);
#681=EDGE_CURVE('',#961,#962,#837,.T.);
#682=EDGE_CURVE('',#963,#962,#838,.T.);
#683=EDGE_CURVE('',#960,#963,#839,.T.);
#684=EDGE_CURVE('',#961,#964,#840,.T.);
#685=EDGE_CURVE('',#964,#965,#841,.T.);
#686=EDGE_CURVE('',#962,#965,#842,.T.);
#687=EDGE_CURVE('',#964,#966,#843,.T.);
#688=EDGE_CURVE('',#966,#967,#844,.T.);
#689=EDGE_CURVE('',#965,#967,#845,.T.);
#690=EDGE_CURVE('',#966,#960,#846,.T.);
#691=EDGE_CURVE('',#967,#963,#847,.T.);
#692=EDGE_CURVE('',#968,#969,#848,.T.);
#693=EDGE_CURVE('',#969,#970,#849,.T.);
#694=EDGE_CURVE('',#971,#970,#850,.T.);
#695=EDGE_CURVE('',#968,#971,#851,.T.);
#696=EDGE_CURVE('',#969,#972,#852,.T.);
#697=EDGE_CURVE('',#972,#973,#853,.T.);
#698=EDGE_CURVE('',#970,#973,#854,.T.);
#699=EDGE_CURVE('',#972,#974,#855,.T.);
#700=EDGE_CURVE('',#974,#975,#856,.T.);
#701=EDGE_CURVE('',#973,#975,#857,.T.);
#702=EDGE_CURVE('',#974,#968,#858,.T.);
#703=EDGE_CURVE('',#975,#971,#859,.T.);
#704=EDGE_CURVE('',#976,#977,#860,.T.);
#705=EDGE_CURVE('',#977,#978,#861,.T.);
#706=EDGE_CURVE('',#979,#978,#862,.T.);
#707=EDGE_CURVE('',#976,#979,#863,.T.);
#708=EDGE_CURVE('',#977,#980,#864,.T.);
#709=EDGE_CURVE('',#980,#981,#865,.T.);
#710=EDGE_CURVE('',#978,#981,#866,.T.);
#711=EDGE_CURVE('',#980,#982,#867,.T.);
#712=EDGE_CURVE('',#982,#983,#868,.T.);
#713=EDGE_CURVE('',#981,#983,#869,.T.);
#714=EDGE_CURVE('',#982,#976,#870,.T.);
#715=EDGE_CURVE('',#983,#979,#871,.T.);
#716=EDGE_CURVE('',#984,#985,#872,.T.);
#717=EDGE_CURVE('',#985,#986,#873,.T.);
#718=EDGE_CURVE('',#987,#986,#874,.T.);
#719=EDGE_CURVE('',#984,#987,#875,.T.);
#720=EDGE_CURVE('',#985,#988,#876,.T.);
#721=EDGE_CURVE('',#988,#989,#877,.T.);
#722=EDGE_CURVE('',#986,#989,#878,.T.);
#723=EDGE_CURVE('',#988,#990,#879,.T.);
#724=EDGE_CURVE('',#990,#991,#880,.T.);
#725=EDGE_CURVE('',#989,#991,#881,.T.);
#726=EDGE_CURVE('',#990,#984,#882,.T.);
#727=EDGE_CURVE('',#991,#987,#883,.T.);
#728=EDGE_CURVE('',#992,#993,#884,.T.);
#729=EDGE_CURVE('',#993,#994,#885,.T.);
#730=EDGE_CURVE('',#995,#994,#886,.T.);
#731=EDGE_CURVE('',#992,#995,#887,.T.);
#732=EDGE_CURVE('',#993,#996,#888,.T.);
#733=EDGE_CURVE('',#996,#997,#889,.T.);
#734=EDGE_CURVE('',#994,#997,#890,.T.);
#735=EDGE_CURVE('',#996,#998,#891,.T.);
#736=EDGE_CURVE('',#998,#999,#892,.T.);
#737=EDGE_CURVE('',#997,#999,#893,.T.);
#738=EDGE_CURVE('',#998,#992,#894,.T.);
#739=EDGE_CURVE('',#999,#995,#895,.T.);
#740=B_SPLINE_CURVE_WITH_KNOTS('',1,(#1345,#1346),.UNSPECIFIED.,.F.,.F.,
(2,2),(0.,5.49999999999997),.UNSPECIFIED.);
#741=B_SPLINE_CURVE_WITH_KNOTS('',1,(#1347,#1348),.UNSPECIFIED.,.F.,.F.,
(2,2),(0.,1.5),.UNSPECIFIED.);
#742=B_SPLINE_CURVE_WITH_KNOTS('',1,(#1349,#1350),.UNSPECIFIED.,.F.,.F.,
(2,2),(0.,5.49999999999997),.UNSPECIFIED.);
#743=B_SPLINE_CURVE_WITH_KNOTS('',1,(#1351,#1352),.UNSPECIFIED.,.F.,.F.,
(2,2),(0.,1.5),.UNSPECIFIED.);
#744=B_SPLINE_CURVE_WITH_KNOTS('',1,(#1353,#1354),.UNSPECIFIED.,.F.,.F.,
(2,2),(0.,5.49999999999997),.UNSPECIFIED.);
#745=B_SPLINE_CURVE_WITH_KNOTS('',1,(#1355,#1356),.UNSPECIFIED.,.F.,.F.,
(2,2),(0.,1.5),.UNSPECIFIED.);
#746=B_SPLINE_CURVE_WITH_KNOTS('',1,(#1357,#1358),.UNSPECIFIED.,.F.,.F.,
(2,2),(0.,5.49999999999997),.UNSPECIFIED.);
#747=B_SPLINE_CURVE_WITH_KNOTS('',1,(#1359,#1360),.UNSPECIFIED.,.F.,.F.,
(2,2),(0.,1.5),.UNSPECIFIED.);
#748=B_SPLINE_CURVE_WITH_KNOTS('',1,(#1361,#1362),.UNSPECIFIED.,.F.,.F.,
(2,2),(0.,0.001),.UNSPECIFIED.);
#749=B_SPLINE_CURVE_WITH_KNOTS('',1,(#1363,#1364),.UNSPECIFIED.,.F.,.F.,
(2,2),(0.,0.001),.UNSPECIFIED.);
#750=B_SPLINE_CURVE_WITH_KNOTS('',1,(#1365,#1366),.UNSPECIFIED.,.F.,.F.,
(2,2),(0.,0.001),.UNSPECIFIED.);
#751=B_SPLINE_CURVE_WITH_KNOTS('',1,(#1367,#1368),.UNSPECIFIED.,.F.,.F.,
(2,2),(0.,0.001),.UNSPECIFIED.);
#752=B_SPLINE_CURVE_WITH_KNOTS('',1,(#1383,#1384),.UNSPECIFIED.,.F.,.F.,
(2,2),(-168.,-96.),.UNSPECIFIED.);
#753=B_SPLINE_CURVE_WITH_KNOTS('',1,(#1385,#1386),.UNSPECIFIED.,.F.,.F.,
(2,2),(0.,0.001),.UNSPECIFIED.);
#754=B_SPLINE_CURVE_WITH_KNOTS('',1,(#1387,#1388),.UNSPECIFIED.,.F.,.F.,
(2,2),(-168.,-96.),.UNSPECIFIED.);
#755=B_SPLINE_CURVE_WITH_KNOTS('',1,(#1389,#1390),.UNSPECIFIED.,.F.,.F.,
(2,2),(0.,0.001),.UNSPECIFIED.);
#756=B_SPLINE_CURVE_WITH_KNOTS('',1,(#1391,#1392),.UNSPECIFIED.,.F.,.F.,
(2,2),(-96.,-84.),.UNSPECIFIED.);
#757=B_SPLINE_CURVE_WITH_KNOTS('',1,(#1393,#1394),.UNSPECIFIED.,.F.,.F.,
(2,2),(0.,0.001),.UNSPECIFIED.);
#758=B_SPLINE_CURVE_WITH_KNOTS('',1,(#1395,#1396),.UNSPECIFIED.,.F.,.F.,
(2,2),(-96.,-84.),.UNSPECIFIED.);
#759=B_SPLINE_CURVE_WITH_KNOTS('',1,(#1397,#1398),.UNSPECIFIED.,.F.,.F.,
(2,2),(-84.,-12.),.UNSPECIFIED.);
#760=B_SPLINE_CURVE_WITH_KNOTS('',1,(#1399,#1400),.UNSPECIFIED.,.F.,.F.,
(2,2),(0.,0.001),.UNSPECIFIED.);
#761=B_SPLINE_CURVE_WITH_KNOTS('',1,(#1401,#1402),.UNSPECIFIED.,.F.,.F.,
(2,2),(-84.,-12.),.UNSPECIFIED.);
#762=B_SPLINE_CURVE_WITH_KNOTS('',1,(#1403,#1404),.UNSPECIFIED.,.F.,.F.,
(2,2),(-12.,0.),.UNSPECIFIED.);
#763=B_SPLINE_CURVE_WITH_KNOTS('',1,(#1405,#1406),.UNSPECIFIED.,.F.,.F.,
(2,2),(-12.,0.),.UNSPECIFIED.);
#764=B_SPLINE_CURVE_WITH_KNOTS('',1,(#1421,#1422),.UNSPECIFIED.,.F.,.F.,
(2,2),(0.,12.),.UNSPECIFIED.);
#765=B_SPLINE_CURVE_WITH_KNOTS('',1,(#1423,#1424),.UNSPECIFIED.,.F.,.F.,
(2,2),(0.,0.001),.UNSPECIFIED.);
#766=B_SPLINE_CURVE_WITH_KNOTS('',1,(#1425,#1426),.UNSPECIFIED.,.F.,.F.,
(2,2),(0.,12.),.UNSPECIFIED.);
#767=B_SPLINE_CURVE_WITH_KNOTS('',1,(#1427,#1428),.UNSPECIFIED.,.F.,.F.,
(2,2),(0.,0.001),.UNSPECIFIED.);
#768=B_SPLINE_CURVE_WITH_KNOTS('',1,(#1429,#1430),.UNSPECIFIED.,.F.,.F.,
(2,2),(12.,84.),.UNSPECIFIED.);
#769=B_SPLINE_CURVE_WITH_KNOTS('',1,(#1431,#1432),.UNSPECIFIED.,.F.,.F.,
(2,2),(0.,0.001),.UNSPECIFIED.);
#770=B_SPLINE_CURVE_WITH_KNOTS('',1,(#1433,#1434),.UNSPECIFIED.,.F.,.F.,
(2,2),(12.,84.),.UNSPECIFIED.);
#771=B_SPLINE_CURVE_WITH_KNOTS('',1,(#1435,#1436),.UNSPECIFIED.,.F.,.F.,
(2,2),(84.,96.),.UNSPECIFIED.);
#772=B_SPLINE_CURVE_WITH_KNOTS('',1,(#1437,#1438),.UNSPECIFIED.,.F.,.F.,
(2,2),(0.,0.001),.UNSPECIFIED.);
#773=B_SPLINE_CURVE_WITH_KNOTS('',1,(#1439,#1440),.UNSPECIFIED.,.F.,.F.,
(2,2),(84.,96.),.UNSPECIFIED.);
#774=B_SPLINE_CURVE_WITH_KNOTS('',1,(#1441,#1442),.UNSPECIFIED.,.F.,.F.,
(2,2),(96.,168.),.UNSPECIFIED.);
#775=B_SPLINE_CURVE_WITH_KNOTS('',1,(#1443,#1444),.UNSPECIFIED.,.F.,.F.,
(2,2),(96.,168.),.UNSPECIFIED.);
#776=B_SPLINE_CURVE_WITH_KNOTS('',1,(#1459,#1460),.UNSPECIFIED.,.F.,.F.,
(2,2),(0.,12.),.UNSPECIFIED.);
#777=B_SPLINE_CURVE_WITH_KNOTS('',1,(#1461,#1462),.UNSPECIFIED.,.F.,.F.,
(2,2),(0.,0.001),.UNSPECIFIED.);
#778=B_SPLINE_CURVE_WITH_KNOTS('',1,(#1463,#1464),.UNSPECIFIED.,.F.,.F.,
(2,2),(0.,12.),.UNSPECIFIED.);
#779=B_SPLINE_CURVE_WITH_KNOTS('',1,(#1465,#1466),.UNSPECIFIED.,.F.,.F.,
(2,2),(0.,0.001),.UNSPECIFIED.);
#780=B_SPLINE_CURVE_WITH_KNOTS('',1,(#1467,#1468),.UNSPECIFIED.,.F.,.F.,
(2,2),(12.,84.),.UNSPECIFIED.);
#781=B_SPLINE_CURVE_WITH_KNOTS('',1,(#1469,#1470),.UNSPECIFIED.,.F.,.F.,
(2,2),(0.,0.001),.UNSPECIFIED.);
#782=B_SPLINE_CURVE_WITH_KNOTS('',1,(#1471,#1472),.UNSPECIFIED.,.F.,.F.,
(2,2),(12.,84.),.UNSPECIFIED.);
#783=B_SPLINE_CURVE_WITH_KNOTS('',1,(#1473,#1474),.UNSPECIFIED.,.F.,.F.,
(2,2),(84.,96.),.UNSPECIFIED.);
#784=B_SPLINE_CURVE_WITH_KNOTS('',1,(#1475,#1476),.UNSPECIFIED.,.F.,.F.,
(2,2),(0.,0.001),.UNSPECIFIED.);
#785=B_SPLINE_CURVE_WITH_KNOTS('',1,(#1477,#1478),.UNSPECIFIED.,.F.,.F.,
(2,2),(84.,96.),.UNSPECIFIED.);
#786=B_SPLINE_CURVE_WITH_KNOTS('',1,(#1479,#1480),.UNSPECIFIED.,.F.,.F.,
(2,2),(96.,168.),.UNSPECIFIED.);
#787=B_SPLINE_CURVE_WITH_KNOTS('',1,(#1481,#1482),.UNSPECIFIED.,.F.,.F.,
(2,2),(96.,168.),.UNSPECIFIED.);
#788=B_SPLINE_CURVE_WITH_KNOTS('',1,(#1497,#1498),.UNSPECIFIED.,.F.,.F.,
(2,2),(0.,12.),.UNSPECIFIED.);
#789=B_SPLINE_CURVE_WITH_KNOTS('',1,(#1499,#1500),.UNSPECIFIED.,.F.,.F.,
(2,2),(0.,0.001),.UNSPECIFIED.);
#790=B_SPLINE_CURVE_WITH_KNOTS('',1,(#1501,#1502),.UNSPECIFIED.,.F.,.F.,
(2,2),(0.,12.),.UNSPECIFIED.);
#791=B_SPLINE_CURVE_WITH_KNOTS('',1,(#1503,#1504),.UNSPECIFIED.,.F.,.F.,
(2,2),(0.,0.001),.UNSPECIFIED.);
#792=B_SPLINE_CURVE_WITH_KNOTS('',1,(#1505,#1506),.UNSPECIFIED.,.F.,.F.,
(2,2),(12.,84.),.UNSPECIFIED.);
#793=B_SPLINE_CURVE_WITH_KNOTS('',1,(#1507,#1508),.UNSPECIFIED.,.F.,.F.,
(2,2),(0.,0.001),.UNSPECIFIED.);
#794=B_SPLINE_CURVE_WITH_KNOTS('',1,(#1509,#1510),.UNSPECIFIED.,.F.,.F.,
(2,2),(12.,84.),.UNSPECIFIED.);
#795=B_SPLINE_CURVE_WITH_KNOTS('',1,(#1511,#1512),.UNSPECIFIED.,.F.,.F.,
(2,2),(84.,96.),.UNSPECIFIED.);
#796=B_SPLINE_CURVE_WITH_KNOTS('',1,(#1513,#1514),.UNSPECIFIED.,.F.,.F.,
(2,2),(0.,0.001),.UNSPECIFIED.);
#797=B_SPLINE_CURVE_WITH_KNOTS('',1,(#1515,#1516),.UNSPECIFIED.,.F.,.F.,
(2,2),(84.,96.),.UNSPECIFIED.);
#798=B_SPLINE_CURVE_WITH_KNOTS('',1,(#1517,#1518),.UNSPECIFIED.,.F.,.F.,
(2,2),(96.,168.),.UNSPECIFIED.);
#799=B_SPLINE_CURVE_WITH_KNOTS('',1,(#1519,#1520),.UNSPECIFIED.,.F.,.F.,
(2,2),(96.,168.),.UNSPECIFIED.);
#800=B_SPLINE_CURVE_WITH_KNOTS('',1,(#1535,#1536),.UNSPECIFIED.,.F.,.F.,
(2,2),(0.,12.),.UNSPECIFIED.);
#801=B_SPLINE_CURVE_WITH_KNOTS('',1,(#1537,#1538),.UNSPECIFIED.,.F.,.F.,
(2,2),(0.,0.001),.UNSPECIFIED.);
#802=B_SPLINE_CURVE_WITH_KNOTS('',1,(#1539,#1540),.UNSPECIFIED.,.F.,.F.,
(2,2),(0.,12.),.UNSPECIFIED.);
#803=B_SPLINE_CURVE_WITH_KNOTS('',1,(#1541,#1542),.UNSPECIFIED.,.F.,.F.,
(2,2),(0.,0.001),.UNSPECIFIED.);
#804=B_SPLINE_CURVE_WITH_KNOTS('',1,(#1543,#1544),.UNSPECIFIED.,.F.,.F.,
(2,2),(12.,84.),.UNSPECIFIED.);
#805=B_SPLINE_CURVE_WITH_KNOTS('',1,(#1545,#1546),.UNSPECIFIED.,.F.,.F.,
(2,2),(0.,0.001),.UNSPECIFIED.);
#806=B_SPLINE_CURVE_WITH_KNOTS('',1,(#1547,#1548),.UNSPECIFIED.,.F.,.F.,
(2,2),(12.,84.),.UNSPECIFIED.);
#807=B_SPLINE_CURVE_WITH_KNOTS('',1,(#1549,#1550),.UNSPECIFIED.,.F.,.F.,
(2,2),(84.,96.),.UNSPECIFIED.);
#808=B_SPLINE_CURVE_WITH_KNOTS('',1,(#1551,#1552),.UNSPECIFIED.,.F.,.F.,
(2,2),(0.,0.001),.UNSPECIFIED.);
#809=B_SPLINE_CURVE_WITH_KNOTS('',1,(#1553,#1554),.UNSPECIFIED.,.F.,.F.,
(2,2),(84.,96.),.UNSPECIFIED.);
#810=B_SPLINE_CURVE_WITH_KNOTS('',1,(#1555,#1556),.UNSPECIFIED.,.F.,.F.,
(2,2),(96.,168.),.UNSPECIFIED.);
#811=B_SPLINE_CURVE_WITH_KNOTS('',1,(#1557,#1558),.UNSPECIFIED.,.F.,.F.,
(2,2),(96.,168.),.UNSPECIFIED.);
#812=B_SPLINE_CURVE_WITH_KNOTS('',1,(#1573,#1574),.UNSPECIFIED.,.F.,.F.,
(2,2),(0.,12.),.UNSPECIFIED.);
#813=B_SPLINE_CURVE_WITH_KNOTS('',1,(#1575,#1576),.UNSPECIFIED.,.F.,.F.,
(2,2),(0.,0.001),.UNSPECIFIED.);
#814=B_SPLINE_CURVE_WITH_KNOTS('',1,(#1577,#1578),.UNSPECIFIED.,.F.,.F.,
(2,2),(0.,12.),.UNSPECIFIED.);
#815=B_SPLINE_CURVE_WITH_KNOTS('',1,(#1579,#1580),.UNSPECIFIED.,.F.,.F.,
(2,2),(0.,0.001),.UNSPECIFIED.);
#816=B_SPLINE_CURVE_WITH_KNOTS('',1,(#1581,#1582),.UNSPECIFIED.,.F.,.F.,
(2,2),(12.,84.),.UNSPECIFIED.);
#817=B_SPLINE_CURVE_WITH_KNOTS('',1,(#1583,#1584),.UNSPECIFIED.,.F.,.F.,
(2,2),(0.,0.001),.UNSPECIFIED.);
#818=B_SPLINE_CURVE_WITH_KNOTS('',1,(#1585,#1586),.UNSPECIFIED.,.F.,.F.,
(2,2),(12.,84.),.UNSPECIFIED.);
#819=B_SPLINE_CURVE_WITH_KNOTS('',1,(#1587,#1588),.UNSPECIFIED.,.F.,.F.,
(2,2),(84.,96.),.UNSPECIFIED.);
#820=B_SPLINE_CURVE_WITH_KNOTS('',1,(#1589,#1590),.UNSPECIFIED.,.F.,.F.,
(2,2),(0.,0.001),.UNSPECIFIED.);
#821=B_SPLINE_CURVE_WITH_KNOTS('',1,(#1591,#1592),.UNSPECIFIED.,.F.,.F.,
(2,2),(84.,96.),.UNSPECIFIED.);
#822=B_SPLINE_CURVE_WITH_KNOTS('',1,(#1593,#1594),.UNSPECIFIED.,.F.,.F.,
(2,2),(96.,168.),.UNSPECIFIED.);
#823=B_SPLINE_CURVE_WITH_KNOTS('',1,(#1595,#1596),.UNSPECIFIED.,.F.,.F.,
(2,2),(96.,168.),.UNSPECIFIED.);
#824=B_SPLINE_CURVE_WITH_KNOTS('',1,(#1611,#1612),.UNSPECIFIED.,.F.,.F.,
(2,2),(0.,12.),.UNSPECIFIED.);
#825=B_SPLINE_CURVE_WITH_KNOTS('',1,(#1613,#1614),.UNSPECIFIED.,.F.,.F.,
(2,2),(0.,0.001),.UNSPECIFIED.);
#826=B_SPLINE_CURVE_WITH_KNOTS('',1,(#1615,#1616),.UNSPECIFIED.,.F.,.F.,
(2,2),(0.,12.),.UNSPECIFIED.);
#827=B_SPLINE_CURVE_WITH_KNOTS('',1,(#1617,#1618),.UNSPECIFIED.,.F.,.F.,
(2,2),(0.,0.001),.UNSPECIFIED.);
#828=B_SPLINE_CURVE_WITH_KNOTS('',1,(#1619,#1620),.UNSPECIFIED.,.F.,.F.,
(2,2),(12.,84.),.UNSPECIFIED.);
#829=B_SPLINE_CURVE_WITH_KNOTS('',1,(#1621,#1622),.UNSPECIFIED.,.F.,.F.,
(2,2),(0.,0.001),.UNSPECIFIED.);
#830=B_SPLINE_CURVE_WITH_KNOTS('',1,(#1623,#1624),.UNSPECIFIED.,.F.,.F.,
(2,2),(12.,84.),.UNSPECIFIED.);
#831=B_SPLINE_CURVE_WITH_KNOTS('',1,(#1625,#1626),.UNSPECIFIED.,.F.,.F.,
(2,2),(84.,96.),.UNSPECIFIED.);
#832=B_SPLINE_CURVE_WITH_KNOTS('',1,(#1627,#1628),.UNSPECIFIED.,.F.,.F.,
(2,2),(0.,0.001),.UNSPECIFIED.);
#833=B_SPLINE_CURVE_WITH_KNOTS('',1,(#1629,#1630),.UNSPECIFIED.,.F.,.F.,
(2,2),(84.,96.),.UNSPECIFIED.);
#834=B_SPLINE_CURVE_WITH_KNOTS('',1,(#1631,#1632),.UNSPECIFIED.,.F.,.F.,
(2,2),(96.,168.),.UNSPECIFIED.);
#835=B_SPLINE_CURVE_WITH_KNOTS('',1,(#1633,#1634),.UNSPECIFIED.,.F.,.F.,
(2,2),(96.,168.),.UNSPECIFIED.);
#836=B_SPLINE_CURVE_WITH_KNOTS('',1,(#1649,#1650),.UNSPECIFIED.,.F.,.F.,
(2,2),(-168.,-96.),.UNSPECIFIED.);
#837=B_SPLINE_CURVE_WITH_KNOTS('',1,(#1651,#1652),.UNSPECIFIED.,.F.,.F.,
(2,2),(0.,0.001),.UNSPECIFIED.);
#838=B_SPLINE_CURVE_WITH_KNOTS('',1,(#1653,#1654),.UNSPECIFIED.,.F.,.F.,
(2,2),(-168.,-96.),.UNSPECIFIED.);
#839=B_SPLINE_CURVE_WITH_KNOTS('',1,(#1655,#1656),.UNSPECIFIED.,.F.,.F.,
(2,2),(0.,0.001),.UNSPECIFIED.);
#840=B_SPLINE_CURVE_WITH_KNOTS('',1,(#1657,#1658),.UNSPECIFIED.,.F.,.F.,
(2,2),(-96.,-84.),.UNSPECIFIED.);
#841=B_SPLINE_CURVE_WITH_KNOTS('',1,(#1659,#1660),.UNSPECIFIED.,.F.,.F.,
(2,2),(0.,0.001),.UNSPECIFIED.);
#842=B_SPLINE_CURVE_WITH_KNOTS('',1,(#1661,#1662),.UNSPECIFIED.,.F.,.F.,
(2,2),(-96.,-84.),.UNSPECIFIED.);
#843=B_SPLINE_CURVE_WITH_KNOTS('',1,(#1663,#1664),.UNSPECIFIED.,.F.,.F.,
(2,2),(-84.,-12.),.UNSPECIFIED.);
#844=B_SPLINE_CURVE_WITH_KNOTS('',1,(#1665,#1666),.UNSPECIFIED.,.F.,.F.,
(2,2),(0.,0.001),.UNSPECIFIED.);
#845=B_SPLINE_CURVE_WITH_KNOTS('',1,(#1667,#1668),.UNSPECIFIED.,.F.,.F.,
(2,2),(-84.,-12.),.UNSPECIFIED.);
#846=B_SPLINE_CURVE_WITH_KNOTS('',1,(#1669,#1670),.UNSPECIFIED.,.F.,.F.,
(2,2),(-12.,0.),.UNSPECIFIED.);
#847=B_SPLINE_CURVE_WITH_KNOTS('',1,(#1671,#1672),.UNSPECIFIED.,.F.,.F.,
(2,2),(-12.,0.),.UNSPECIFIED.);
#848=B_SPLINE_CURVE_WITH_KNOTS('',1,(#1687,#1688),.UNSPECIFIED.,.F.,.F.,
(2,2),(-168.,-96.),.UNSPECIFIED.);
#849=B_SPLINE_CURVE_WITH_KNOTS('',1,(#1689,#1690),.UNSPECIFIED.,.F.,.F.,
(2,2),(0.,0.001),.UNSPECIFIED.);
#850=B_SPLINE_CURVE_WITH_KNOTS('',1,(#1691,#1692),.UNSPECIFIED.,.F.,.F.,
(2,2),(-168.,-96.),.UNSPECIFIED.);
#851=B_SPLINE_CURVE_WITH_KNOTS('',1,(#1693,#1694),.UNSPECIFIED.,.F.,.F.,
(2,2),(0.,0.001),.UNSPECIFIED.);
#852=B_SPLINE_CURVE_WITH_KNOTS('',1,(#1695,#1696),.UNSPECIFIED.,.F.,.F.,
(2,2),(-96.,-84.),.UNSPECIFIED.);
#853=B_SPLINE_CURVE_WITH_KNOTS('',1,(#1697,#1698),.UNSPECIFIED.,.F.,.F.,
(2,2),(0.,0.001),.UNSPECIFIED.);
#854=B_SPLINE_CURVE_WITH_KNOTS('',1,(#1699,#1700),.UNSPECIFIED.,.F.,.F.,
(2,2),(-96.,-84.),.UNSPECIFIED.);
#855=B_SPLINE_CURVE_WITH_KNOTS('',1,(#1701,#1702),.UNSPECIFIED.,.F.,.F.,
(2,2),(-84.,-12.),.UNSPECIFIED.);
#856=B_SPLINE_CURVE_WITH_KNOTS('',1,(#1703,#1704),.UNSPECIFIED.,.F.,.F.,
(2,2),(0.,0.001),.UNSPECIFIED.);
#857=B_SPLINE_CURVE_WITH_KNOTS('',1,(#1705,#1706),.UNSPECIFIED.,.F.,.F.,
(2,2),(-84.,-12.),.UNSPECIFIED.);
#858=B_SPLINE_CURVE_WITH_KNOTS('',1,(#1707,#1708),.UNSPECIFIED.,.F.,.F.,
(2,2),(-12.,0.),.UNSPECIFIED.);
#859=B_SPLINE_CURVE_WITH_KNOTS('',1,(#1709,#1710),.UNSPECIFIED.,.F.,.F.,
(2,2),(-12.,0.),.UNSPECIFIED.);
#860=B_SPLINE_CURVE_WITH_KNOTS('',1,(#1725,#1726),.UNSPECIFIED.,.F.,.F.,
(2,2),(-168.,-96.),.UNSPECIFIED.);
#861=B_SPLINE_CURVE_WITH_KNOTS('',1,(#1727,#1728),.UNSPECIFIED.,.F.,.F.,
(2,2),(0.,0.001),.UNSPECIFIED.);
#862=B_SPLINE_CURVE_WITH_KNOTS('',1,(#1729,#1730),.UNSPECIFIED.,.F.,.F.,
(2,2),(-168.,-96.),.UNSPECIFIED.);
#863=B_SPLINE_CURVE_WITH_KNOTS('',1,(#1731,#1732),.UNSPECIFIED.,.F.,.F.,
(2,2),(0.,0.001),.UNSPECIFIED.);
#864=B_SPLINE_CURVE_WITH_KNOTS('',1,(#1733,#1734),.UNSPECIFIED.,.F.,.F.,
(2,2),(-96.,-84.),.UNSPECIFIED.);
#865=B_SPLINE_CURVE_WITH_KNOTS('',1,(#1735,#1736),.UNSPECIFIED.,.F.,.F.,
(2,2),(0.,0.001),.UNSPECIFIED.);
#866=B_SPLINE_CURVE_WITH_KNOTS('',1,(#1737,#1738),.UNSPECIFIED.,.F.,.F.,
(2,2),(-96.,-84.),.UNSPECIFIED.);
#867=B_SPLINE_CURVE_WITH_KNOTS('',1,(#1739,#1740),.UNSPECIFIED.,.F.,.F.,
(2,2),(-84.,-12.),.UNSPECIFIED.);
#868=B_SPLINE_CURVE_WITH_KNOTS('',1,(#1741,#1742),.UNSPECIFIED.,.F.,.F.,
(2,2),(0.,0.001),.UNSPECIFIED.);
#869=B_SPLINE_CURVE_WITH_KNOTS('',1,(#1743,#1744),.UNSPECIFIED.,.F.,.F.,
(2,2),(-84.,-12.),.UNSPECIFIED.);
#870=B_SPLINE_CURVE_WITH_KNOTS('',1,(#1745,#1746),.UNSPECIFIED.,.F.,.F.,
(2,2),(-12.,0.),.UNSPECIFIED.);
#871=B_SPLINE_CURVE_WITH_KNOTS('',1,(#1747,#1748),.UNSPECIFIED.,.F.,.F.,
(2,2),(-12.,0.),.UNSPECIFIED.);
#872=B_SPLINE_CURVE_WITH_KNOTS('',1,(#1763,#1764),.UNSPECIFIED.,.F.,.F.,
(2,2),(-168.,-96.),.UNSPECIFIED.);
#873=B_SPLINE_CURVE_WITH_KNOTS('',1,(#1765,#1766),.UNSPECIFIED.,.F.,.F.,
(2,2),(0.,0.001),.UNSPECIFIED.);
#874=B_SPLINE_CURVE_WITH_KNOTS('',1,(#1767,#1768),.UNSPECIFIED.,.F.,.F.,
(2,2),(-168.,-96.),.UNSPECIFIED.);
#875=B_SPLINE_CURVE_WITH_KNOTS('',1,(#1769,#1770),.UNSPECIFIED.,.F.,.F.,
(2,2),(0.,0.001),.UNSPECIFIED.);
#876=B_SPLINE_CURVE_WITH_KNOTS('',1,(#1771,#1772),.UNSPECIFIED.,.F.,.F.,
(2,2),(-96.,-84.),.UNSPECIFIED.);
#877=B_SPLINE_CURVE_WITH_KNOTS('',1,(#1773,#1774),.UNSPECIFIED.,.F.,.F.,
(2,2),(0.,0.001),.UNSPECIFIED.);
#878=B_SPLINE_CURVE_WITH_KNOTS('',1,(#1775,#1776),.UNSPECIFIED.,.F.,.F.,
(2,2),(-96.,-84.),.UNSPECIFIED.);
#879=B_SPLINE_CURVE_WITH_KNOTS('',1,(#1777,#1778),.UNSPECIFIED.,.F.,.F.,
(2,2),(-84.,-12.),.UNSPECIFIED.);
#880=B_SPLINE_CURVE_WITH_KNOTS('',1,(#1779,#1780),.UNSPECIFIED.,.F.,.F.,
(2,2),(0.,0.001),.UNSPECIFIED.);
#881=B_SPLINE_CURVE_WITH_KNOTS('',1,(#1781,#1782),.UNSPECIFIED.,.F.,.F.,
(2,2),(-84.,-12.),.UNSPECIFIED.);
#882=B_SPLINE_CURVE_WITH_KNOTS('',1,(#1783,#1784),.UNSPECIFIED.,.F.,.F.,
(2,2),(-12.,0.),.UNSPECIFIED.);
#883=B_SPLINE_CURVE_WITH_KNOTS('',1,(#1785,#1786),.UNSPECIFIED.,.F.,.F.,
(2,2),(-12.,0.),.UNSPECIFIED.);
#884=B_SPLINE_CURVE_WITH_KNOTS('',1,(#1801,#1802),.UNSPECIFIED.,.F.,.F.,
(2,2),(-168.,-96.),.UNSPECIFIED.);
#885=B_SPLINE_CURVE_WITH_KNOTS('',1,(#1803,#1804),.UNSPECIFIED.,.F.,.F.,
(2,2),(0.,0.001),.UNSPECIFIED.);
#886=B_SPLINE_CURVE_WITH_KNOTS('',1,(#1805,#1806),.UNSPECIFIED.,.F.,.F.,
(2,2),(-168.,-96.),.UNSPECIFIED.);
#887=B_SPLINE_CURVE_WITH_KNOTS('',1,(#1807,#1808),.UNSPECIFIED.,.F.,.F.,
(2,2),(0.,0.001),.UNSPECIFIED.);
#888=B_SPLINE_CURVE_WITH_KNOTS('',1,(#1809,#1810),.UNSPECIFIED.,.F.,.F.,
(2,2),(-96.,-84.),.UNSPECIFIED.);
#889=B_SPLINE_CURVE_WITH_KNOTS('',1,(#1811,#1812),.UNSPECIFIED.,.F.,.F.,
(2,2),(0.,0.001),.UNSPECIFIED.);
#890=B_SPLINE_CURVE_WITH_KNOTS('',1,(#1813,#1814),.UNSPECIFIED.,.F.,.F.,
(2,2),(-96.,-84.),.UNSPECIFIED.);
#891=B_SPLINE_CURVE_WITH_KNOTS('',1,(#1815,#1816),.UNSPECIFIED.,.F.,.F.,
(2,2),(-84.,-12.),.UNSPECIFIED.);
#892=B_SPLINE_CURVE_WITH_KNOTS('',1,(#1817,#1818),.UNSPECIFIED.,.F.,.F.,
(2,2),(0.,0.001),.UNSPECIFIED.);
#893=B_SPLINE_CURVE_WITH_KNOTS('',1,(#1819,#1820),.UNSPECIFIED.,.F.,.F.,
(2,2),(-84.,-12.),.UNSPECIFIED.);
#894=B_SPLINE_CURVE_WITH_KNOTS('',1,(#1821,#1822),.UNSPECIFIED.,.F.,.F.,
(2,2),(-12.,0.),.UNSPECIFIED.);
#895=B_SPLINE_CURVE_WITH_KNOTS('',1,(#1823,#1824),.UNSPECIFIED.,.F.,.F.,
(2,2),(-12.,0.),.UNSPECIFIED.);
#896=VERTEX_POINT('',#1337);
#897=VERTEX_POINT('',#1338);
#898=VERTEX_POINT('',#1339);
#899=VERTEX_POINT('',#1340);
#900=VERTEX_POINT('',#1341);
#901=VERTEX_POINT('',#1342);
#902=VERTEX_POINT('',#1343);
#903=VERTEX_POINT('',#1344);
#904=VERTEX_POINT('',#1375);
#905=VERTEX_POINT('',#1376);
#906=VERTEX_POINT('',#1377);
#907=VERTEX_POINT('',#1378);
#908=VERTEX_POINT('',#1379);
#909=VERTEX_POINT('',#1380);
#910=VERTEX_POINT('',#1381);
#911=VERTEX_POINT('',#1382);
#912=VERTEX_POINT('',#1413);
#913=VERTEX_POINT('',#1414);
#914=VERTEX_POINT('',#1415);
#915=VERTEX_POINT('',#1416);
#916=VERTEX_POINT('',#1417);
#917=VERTEX_POINT('',#1418);
#918=VERTEX_POINT('',#1419);
#919=VERTEX_POINT('',#1420);
#920=VERTEX_POINT('',#1451);
#921=VERTEX_POINT('',#1452);
#922=VERTEX_POINT('',#1453);
#923=VERTEX_POINT('',#1454);
#924=VERTEX_POINT('',#1455);
#925=VERTEX_POINT('',#1456);
#926=VERTEX_POINT('',#1457);
#927=VERTEX_POINT('',#1458);
#928=VERTEX_POINT('',#1489);
#929=VERTEX_POINT('',#1490);
#930=VERTEX_POINT('',#1491);
#931=VERTEX_POINT('',#1492);
#932=VERTEX_POINT('',#1493);
#933=VERTEX_POINT('',#1494);
#934=VERTEX_POINT('',#1495);
#935=VERTEX_POINT('',#1496);
#936=VERTEX_POINT('',#1527);
#937=VERTEX_POINT('',#1528);
#938=VERTEX_POINT('',#1529);
#939=VERTEX_POINT('',#1530);
#940=VERTEX_POINT('',#1531);
#941=VERTEX_POINT('',#1532);
#942=VERTEX_POINT('',#1533);
#943=VERTEX_POINT('',#1534);
#944=VERTEX_POINT('',#1565);
#945=VERTEX_POINT('',#1566);
#946=VERTEX_POINT('',#1567);
#947=VERTEX_POINT('',#1568);
#948=VERTEX_POINT('',#1569);
#949=VERTEX_POINT('',#1570);
#950=VERTEX_POINT('',#1571);
#951=VERTEX_POINT('',#1572);
#952=VERTEX_POINT('',#1603);
#953=VERTEX_POINT('',#1604);
#954=VERTEX_POINT('',#1605);
#955=VERTEX_POINT('',#1606);
#956=VERTEX_POINT('',#1607);
#957=VERTEX_POINT('',#1608);
#958=VERTEX_POINT('',#1609);
#959=VERTEX_POINT('',#1610);
#960=VERTEX_POINT('',#1641);
#961=VERTEX_POINT('',#1642);
#962=VERTEX_POINT('',#1643);
#963=VERTEX_POINT('',#1644);
#964=VERTEX_POINT('',#1645);
#965=VERTEX_POINT('',#1646);
#966=VERTEX_POINT('',#1647);
#967=VERTEX_POINT('',#1648);
#968=VERTEX_POINT('',#1679);
#969=VERTEX_POINT('',#1680);
#970=VERTEX_POINT('',#1681);
#971=VERTEX_POINT('',#1682);
#972=VERTEX_POINT('',#1683);
#973=VERTEX_POINT('',#1684);
#974=VERTEX_POINT('',#1685);
#975=VERTEX_POINT('',#1686);
#976=VERTEX_POINT('',#1717);
#977=VERTEX_POINT('',#1718);
#978=VERTEX_POINT('',#1719);
#979=VERTEX_POINT('',#1720);
#980=VERTEX_POINT('',#1721);
#981=VERTEX_POINT('',#1722);
#982=VERTEX_POINT('',#1723);
#983=VERTEX_POINT('',#1724);
#984=VERTEX_POINT('',#1755);
#985=VERTEX_POINT('',#1756);
#986=VERTEX_POINT('',#1757);
#987=VERTEX_POINT('',#1758);
#988=VERTEX_POINT('',#1759);
#989=VERTEX_POINT('',#1760);
#990=VERTEX_POINT('',#1761);
#991=VERTEX_POINT('',#1762);
#992=VERTEX_POINT('',#1793);
#993=VERTEX_POINT('',#1794);
#994=VERTEX_POINT('',#1795);
#995=VERTEX_POINT('',#1796);
#996=VERTEX_POINT('',#1797);
#997=VERTEX_POINT('',#1798);
#998=VERTEX_POINT('',#1799);
#999=VERTEX_POINT('',#1800);
#1000=PLANE('',#1169);
#1001=PLANE('',#1170);
#1002=PLANE('',#1171);
#1003=PLANE('',#1172);
#1004=PLANE('',#1173);
#1005=PLANE('',#1174);
#1006=PLANE('',#1175);
#1007=PLANE('',#1176);
#1008=PLANE('',#1177);
#1009=PLANE('',#1178);
#1010=PLANE('',#1179);
#1011=PLANE('',#1180);
#1012=PLANE('',#1181);
#1013=PLANE('',#1182);
#1014=PLANE('',#1183);
#1015=PLANE('',#1184);
#1016=PLANE('',#1185);
#1017=PLANE('',#1186);
#1018=PLANE('',#1187);
#1019=PLANE('',#1188);
#1020=PLANE('',#1189);
#1021=PLANE('',#1190);
#1022=PLANE('',#1191);
#1023=PLANE('',#1192);
#1024=PLANE('',#1193);
#1025=PLANE('',#1194);
#1026=PLANE('',#1195);
#1027=PLANE('',#1196);
#1028=PLANE('',#1197);
#1029=PLANE('',#1198);
#1030=PLANE('',#1199);
#1031=PLANE('',#1200);
#1032=PLANE('',#1201);
#1033=PLANE('',#1202);
#1034=PLANE('',#1203);
#1035=PLANE('',#1204);
#1036=PLANE('',#1205);
#1037=PLANE('',#1206);
#1038=PLANE('',#1207);
#1039=PLANE('',#1208);
#1040=PLANE('',#1209);
#1041=PLANE('',#1210);
#1042=PLANE('',#1211);
#1043=PLANE('',#1212);
#1044=PLANE('',#1213);
#1045=PLANE('',#1214);
#1046=PLANE('',#1215);
#1047=PLANE('',#1216);
#1048=PLANE('',#1217);
#1049=PLANE('',#1218);
#1050=PLANE('',#1219);
#1051=PLANE('',#1220);
#1052=PLANE('',#1221);
#1053=PLANE('',#1222);
#1054=PLANE('',#1223);
#1055=PLANE('',#1224);
#1056=PLANE('',#1225);
#1057=PLANE('',#1226);
#1058=PLANE('',#1227);
#1059=PLANE('',#1228);
#1060=PLANE('',#1229);
#1061=PLANE('',#1230);
#1062=PLANE('',#1231);
#1063=PLANE('',#1232);
#1064=PLANE('',#1233);
#1065=PLANE('',#1234);
#1066=PLANE('',#1235);
#1067=PLANE('',#1236);
#1068=PLANE('',#1237);
#1069=PLANE('',#1238);
#1070=PLANE('',#1239);
#1071=PLANE('',#1240);
#1072=PLANE('',#1241);
#1073=PLANE('',#1242);
#1074=PLANE('',#1243);
#1075=PLANE('',#1244);
#1076=PLANE('',#1245);
#1077=PLANE('',#1246);
#1078=SHAPE_DEFINITION_REPRESENTATION(#1079,#1167);
#1079=PRODUCT_DEFINITION_SHAPE($,$,#1081);
#1080=PRODUCT_DEFINITION_CONTEXT('3D Mechanical Parts',#1153,'design');
#1081=PRODUCT_DEFINITION('A','First version',#1123,#1080);
#1082=DATE_TIME_ROLE('classification_date');
#1083=DATE_TIME_ROLE('creation_date');
#1084=APPLIED_DATE_AND_TIME_ASSIGNMENT(#1108,#1082,(#1087));
#1085=APPLIED_DATE_AND_TIME_ASSIGNMENT(#1110,#1083,(#1081));
#1086=SECURITY_CLASSIFICATION_LEVEL('unclassified');
#1087=SECURITY_CLASSIFICATION('A','Security for version',#1086);
#1088=APPLIED_SECURITY_CLASSIFICATION_ASSIGNMENT(#1087,(#1123));
#1089=APPROVAL_ROLE('Version approval');
#1090=APPROVAL_ROLE('Version Security approval');
#1091=APPROVAL_ROLE('Definition approval');
#1092=APPROVAL_PERSON_ORGANIZATION(#1141,#1117,#1089);
#1093=APPROVAL_PERSON_ORGANIZATION(#1142,#1118,#1090);
#1094=APPROVAL_PERSON_ORGANIZATION(#1145,#1119,#1091);
#1095=COORDINATED_UNIVERSAL_TIME_OFFSET(5,0,.BEHIND.);
#1096=LOCAL_TIME(0,0,0.,#1095);
#1097=LOCAL_TIME(0,0,0.,#1095);
#1098=LOCAL_TIME(0,0,0.,#1095);
#1099=LOCAL_TIME(0,0,0.,#1095);
#1100=LOCAL_TIME(0,0,0.,#1095);
#1101=CALENDAR_DATE(1999,1,1);
#1102=CALENDAR_DATE(1999,1,1);
#1103=CALENDAR_DATE(1999,1,1);
#1104=CALENDAR_DATE(1999,1,1);
#1105=CALENDAR_DATE(1999,1,1);
#1106=DATE_AND_TIME(#1101,#1096);
#1107=DATE_AND_TIME(#1102,#1097);
#1108=DATE_AND_TIME(#1103,#1098);
#1109=DATE_AND_TIME(#1104,#1099);
#1110=DATE_AND_TIME(#1105,#1100);
#1111=APPROVAL_DATE_TIME(#1106,#1117);
#1112=APPROVAL_DATE_TIME(#1107,#1118);
#1113=APPROVAL_DATE_TIME(#1109,#1119);
#1114=APPROVAL_STATUS('not_yet_approved');
#1115=APPROVAL_STATUS('not_yet_approved');
#1116=APPROVAL_STATUS('approved');
#1117=APPROVAL(#1114,'Version approval');
#1118=APPROVAL(#1115,'Version Security approval');
#1119=APPROVAL(#1116,'Definition approval');
#1120=APPLIED_APPROVAL_ASSIGNMENT(#1117,(#1123));
#1121=APPLIED_APPROVAL_ASSIGNMENT(#1118,(#1087));
#1122=APPLIED_APPROVAL_ASSIGNMENT(#1119,(#1081));
#1123=PRODUCT_DEFINITION_FORMATION_WITH_SPECIFIED_SOURCE('A',
'First version',#1155,.MADE.);
#1124=PERSON_AND_ORGANIZATION_ROLE('design_owner');
#1125=PERSON_AND_ORGANIZATION_ROLE('creator');
#1126=PERSON_AND_ORGANIZATION_ROLE('design_supplier');
#1127=PERSON_AND_ORGANIZATION_ROLE('classification_officer');
#1128=PERSON_AND_ORGANIZATION_ROLE('creator');
#1129=ORGANIZATION('STI','lab','lab');
#1130=ORGANIZATION('STI','unknown','unknown');
#1131=ORGANIZATION('STI','unknown','unknown');
#1132=ORGANIZATION('STI','unknown','unknown');
#1133=ORGANIZATION('STI','unknown','unknown');
#1134=ORGANIZATION('STI','unknown','unknown');
#1135=ORGANIZATION('STI','unknown','unknown');
#1136=PERSON('1','Box','vc60',$,$,$);
#1137=PERSON('2','last','first',$,$,$);
#1138=PERSON('3','President','Mr.',$,$,$);
#1139=PERSON_AND_ORGANIZATION(#1136,#1129);
#1140=PERSON_AND_ORGANIZATION(#1137,#1130);
#1141=PERSON_AND_ORGANIZATION(#1138,#1131);
#1142=PERSON_AND_ORGANIZATION(#1138,#1132);
#1143=PERSON_AND_ORGANIZATION(#1138,#1133);
#1144=PERSON_AND_ORGANIZATION(#1137,#1134);
#1145=PERSON_AND_ORGANIZATION(#1138,#1135);
#1146=APPLIED_PERSON_AND_ORGANIZATION_ASSIGNMENT(#1139,#1124,(#1155));
#1147=APPLIED_PERSON_AND_ORGANIZATION_ASSIGNMENT(#1140,#1125,(#1123));
#1148=APPLIED_PERSON_AND_ORGANIZATION_ASSIGNMENT(#1140,#1126,(#1123));
#1149=APPLIED_PERSON_AND_ORGANIZATION_ASSIGNMENT(#1143,#1127,(#1087));
#1150=APPLIED_PERSON_AND_ORGANIZATION_ASSIGNMENT(#1144,#1128,(#1081));
#1151=PRODUCT_RELATED_PRODUCT_CATEGORY('detail','detail',(#1155));
#1152=APPLICATION_PROTOCOL_DEFINITION('International Standard',
'config_control_design',1994,#1153);
#1153=APPLICATION_CONTEXT(
'configuration controlled 3d designs of mechanical parts and assemblie
s');
#1154=PRODUCT_CONTEXT('3D Mechanical Parts',#1153,'mechanical');
#1155=PRODUCT('Document','Document','',(#1154));
#1156=(
LENGTH_UNIT()
NAMED_UNIT(*)
SI_UNIT(.CENTI.,.METRE.)
);
#1157=LENGTH_MEASURE_WITH_UNIT(LENGTH_MEASURE(2.54),#1156);
#1158=(
CONVERSION_BASED_UNIT('INCH',#1157)
LENGTH_UNIT()
NAMED_UNIT(#1161)
);
#1159=(
NAMED_UNIT(*)
PLANE_ANGLE_UNIT()
SI_UNIT($,.RADIAN.)
);
#1160=DIMENSIONAL_EXPONENTS(0.,0.,0.,0.,0.,0.,0.);
#1161=DIMENSIONAL_EXPONENTS(1.,0.,0.,0.,0.,0.,0.);
#1162=PLANE_ANGLE_MEASURE_WITH_UNIT(PLANE_ANGLE_MEASURE(0.01745329252),
#1159);
#1163=(
CONVERSION_BASED_UNIT('DEGREES',#1162)
NAMED_UNIT(#1160)
PLANE_ANGLE_UNIT()
);
#1164=(
NAMED_UNIT(*)
SI_UNIT($,.STERADIAN.)
SOLID_ANGLE_UNIT()
);
#1165=UNCERTAINTY_MEASURE_WITH_UNIT(LENGTH_MEASURE(0.0001),#1158,
'DISTANCE_ACCURACY_VALUE',
'Maximum model space distance between geometric entities at asserted c
onnectivities');
#1166=(
GEOMETRIC_REPRESENTATION_CONTEXT(3)
GLOBAL_UNCERTAINTY_ASSIGNED_CONTEXT((#1165))
GLOBAL_UNIT_ASSIGNED_CONTEXT((#1164,#1163,#1158))
REPRESENTATION_CONTEXT('ID1','3D')
);
#1167=SHAPE_REPRESENTATION('Document',(#1168,#1247),#1166);
#1168=AXIS2_PLACEMENT_3D($,#1330,#1248,#1249);
#1169=AXIS2_PLACEMENT_3D('',#1331,#1250,$);
#1170=AXIS2_PLACEMENT_3D('',#1332,#1251,$);
#1171=AXIS2_PLACEMENT_3D('',#1333,#1252,$);
#1172=AXIS2_PLACEMENT_3D('',#1334,#1253,$);
#1173=AXIS2_PLACEMENT_3D('',#1335,#1254,$);
#1174=AXIS2_PLACEMENT_3D('',#1336,#1255,$);
#1175=AXIS2_PLACEMENT_3D('',#1369,#1256,$);
#1176=AXIS2_PLACEMENT_3D('',#1370,#1257,$);
#1177=AXIS2_PLACEMENT_3D('',#1371,#1258,$);
#1178=AXIS2_PLACEMENT_3D('',#1372,#1259,$);
#1179=AXIS2_PLACEMENT_3D('',#1373,#1260,$);
#1180=AXIS2_PLACEMENT_3D('',#1374,#1261,$);
#1181=AXIS2_PLACEMENT_3D('',#1407,#1262,$);
#1182=AXIS2_PLACEMENT_3D('',#1408,#1263,$);
#1183=AXIS2_PLACEMENT_3D('',#1409,#1264,$);
#1184=AXIS2_PLACEMENT_3D('',#1410,#1265,$);
#1185=AXIS2_PLACEMENT_3D('',#1411,#1266,$);
#1186=AXIS2_PLACEMENT_3D('',#1412,#1267,$);
#1187=AXIS2_PLACEMENT_3D('',#1445,#1268,$);
#1188=AXIS2_PLACEMENT_3D('',#1446,#1269,$);
#1189=AXIS2_PLACEMENT_3D('',#1447,#1270,$);
#1190=AXIS2_PLACEMENT_3D('',#1448,#1271,$);
#1191=AXIS2_PLACEMENT_3D('',#1449,#1272,$);
#1192=AXIS2_PLACEMENT_3D('',#1450,#1273,$);
#1193=AXIS2_PLACEMENT_3D('',#1483,#1274,$);
#1194=AXIS2_PLACEMENT_3D('',#1484,#1275,$);
#1195=AXIS2_PLACEMENT_3D('',#1485,#1276,$);
#1196=AXIS2_PLACEMENT_3D('',#1486,#1277,$);
#1197=AXIS2_PLACEMENT_3D('',#1487,#1278,$);
#1198=AXIS2_PLACEMENT_3D('',#1488,#1279,$);
#1199=AXIS2_PLACEMENT_3D('',#1521,#1280,$);
#1200=AXIS2_PLACEMENT_3D('',#1522,#1281,$);
#1201=AXIS2_PLACEMENT_3D('',#1523,#1282,$);
#1202=AXIS2_PLACEMENT_3D('',#1524,#1283,$);
#1203=AXIS2_PLACEMENT_3D('',#1525,#1284,$);
#1204=AXIS2_PLACEMENT_3D('',#1526,#1285,$);
#1205=AXIS2_PLACEMENT_3D('',#1559,#1286,$);
#1206=AXIS2_PLACEMENT_3D('',#1560,#1287,$);
#1207=AXIS2_PLACEMENT_3D('',#1561,#1288,$);
#1208=AXIS2_PLACEMENT_3D('',#1562,#1289,$);
#1209=AXIS2_PLACEMENT_3D('',#1563,#1290,$);
#1210=AXIS2_PLACEMENT_3D('',#1564,#1291,$);
#1211=AXIS2_PLACEMENT_3D('',#1597,#1292,$);
#1212=AXIS2_PLACEMENT_3D('',#1598,#1293,$);
#1213=AXIS2_PLACEMENT_3D('',#1599,#1294,$);
#1214=AXIS2_PLACEMENT_3D('',#1600,#1295,$);
#1215=AXIS2_PLACEMENT_3D('',#1601,#1296,$);
#1216=AXIS2_PLACEMENT_3D('',#1602,#1297,$);
#1217=AXIS2_PLACEMENT_3D('',#1635,#1298,$);
#1218=AXIS2_PLACEMENT_3D('',#1636,#1299,$);
#1219=AXIS2_PLACEMENT_3D('',#1637,#1300,$);
#1220=AXIS2_PLACEMENT_3D('',#1638,#1301,$);
#1221=AXIS2_PLACEMENT_3D('',#1639,#1302,$);
#1222=AXIS2_PLACEMENT_3D('',#1640,#1303,$);
#1223=AXIS2_PLACEMENT_3D('',#1673,#1304,$);
#1224=AXIS2_PLACEMENT_3D('',#1674,#1305,$);
#1225=AXIS2_PLACEMENT_3D('',#1675,#1306,$);
#1226=AXIS2_PLACEMENT_3D('',#1676,#1307,$);
#1227=AXIS2_PLACEMENT_3D('',#1677,#1308,$);
#1228=AXIS2_PLACEMENT_3D('',#1678,#1309,$);
#1229=AXIS2_PLACEMENT_3D('',#1711,#1310,$);
#1230=AXIS2_PLACEMENT_3D('',#1712,#1311,$);
#1231=AXIS2_PLACEMENT_3D('',#1713,#1312,$);
#1232=AXIS2_PLACEMENT_3D('',#1714,#1313,$);
#1233=AXIS2_PLACEMENT_3D('',#1715,#1314,$);
#1234=AXIS2_PLACEMENT_3D('',#1716,#1315,$);
#1235=AXIS2_PLACEMENT_3D('',#1749,#1316,$);
#1236=AXIS2_PLACEMENT_3D('',#1750,#1317,$);
#1237=AXIS2_PLACEMENT_3D('',#1751,#1318,$);
#1238=AXIS2_PLACEMENT_3D('',#1752,#1319,$);
#1239=AXIS2_PLACEMENT_3D('',#1753,#1320,$);
#1240=AXIS2_PLACEMENT_3D('',#1754,#1321,$);
#1241=AXIS2_PLACEMENT_3D('',#1787,#1322,$);
#1242=AXIS2_PLACEMENT_3D('',#1788,#1323,$);
#1243=AXIS2_PLACEMENT_3D('',#1789,#1324,$);
#1244=AXIS2_PLACEMENT_3D('',#1790,#1325,$);
#1245=AXIS2_PLACEMENT_3D('',#1791,#1326,$);
#1246=AXIS2_PLACEMENT_3D('',#1792,#1327,$);
#1247=AXIS2_PLACEMENT_3D($,#1825,#1328,#1329);
#1248=DIRECTION('',(0.,0.,1.));
#1249=DIRECTION('',(1.,0.,0.));
#1250=DIRECTION('',(0.,-1.,0.));
#1251=DIRECTION('',(1.,0.,0.));
#1252=DIRECTION('',(0.,1.,0.));
#1253=DIRECTION('',(-1.,0.,0.));
#1254=DIRECTION('',(0.,0.,-1.));
#1255=DIRECTION('',(0.,0.,1.));
#1256=DIRECTION('',(-1.,0.,0.));
#1257=DIRECTION('',(0.,1.,0.));
#1258=DIRECTION('',(1.,0.,0.));
#1259=DIRECTION('',(0.,-1.,0.));
#1260=DIRECTION('',(0.,0.,1.));
#1261=DIRECTION('',(0.,0.,-1.));
#1262=DIRECTION('',(0.,-1.,0.));
#1263=DIRECTION('',(-1.,0.,0.));
#1264=DIRECTION('',(0.,1.,0.));
#1265=DIRECTION('',(1.,0.,0.));
#1266=DIRECTION('',(0.,0.,1.));
#1267=DIRECTION('',(0.,0.,-1.));
#1268=DIRECTION('',(0.,-1.,0.));
#1269=DIRECTION('',(-1.,0.,0.));
#1270=DIRECTION('',(0.,1.,0.));
#1271=DIRECTION('',(1.,0.,0.));
#1272=DIRECTION('',(0.,0.,1.));
#1273=DIRECTION('',(0.,0.,-1.));
#1274=DIRECTION('',(0.,-1.,0.));
#1275=DIRECTION('',(-1.,0.,0.));
#1276=DIRECTION('',(0.,1.,0.));
#1277=DIRECTION('',(1.,0.,0.));
#1278=DIRECTION('',(0.,0.,1.));
#1279=DIRECTION('',(0.,0.,-1.));
#1280=DIRECTION('',(0.,-1.,0.));
#1281=DIRECTION('',(-1.,0.,0.));
#1282=DIRECTION('',(0.,1.,0.));
#1283=DIRECTION('',(1.,0.,0.));
#1284=DIRECTION('',(0.,0.,1.));
#1285=DIRECTION('',(0.,0.,-1.));
#1286=DIRECTION('',(0.,-1.,0.));
#1287=DIRECTION('',(-1.,0.,0.));
#1288=DIRECTION('',(0.,1.,0.));
#1289=DIRECTION('',(1.,0.,0.));
#1290=DIRECTION('',(0.,0.,1.));
#1291=DIRECTION('',(0.,0.,-1.));
#1292=DIRECTION('',(0.,-1.,0.));
#1293=DIRECTION('',(-1.,0.,0.));
#1294=DIRECTION('',(0.,1.,0.));
#1295=DIRECTION('',(1.,0.,0.));
#1296=DIRECTION('',(0.,0.,1.));
#1297=DIRECTION('',(0.,0.,-1.));
#1298=DIRECTION('',(-1.,0.,0.));
#1299=DIRECTION('',(0.,1.,0.));
#1300=DIRECTION('',(1.,0.,0.));
#1301=DIRECTION('',(0.,-1.,0.));
#1302=DIRECTION('',(0.,0.,1.));
#1303=DIRECTION('',(0.,0.,-1.));
#1304=DIRECTION('',(-1.,0.,0.));
#1305=DIRECTION('',(0.,1.,0.));
#1306=DIRECTION('',(1.,0.,0.));
#1307=DIRECTION('',(0.,-1.,0.));
#1308=DIRECTION('',(0.,0.,1.));
#1309=DIRECTION('',(0.,0.,-1.));
#1310=DIRECTION('',(-1.,0.,0.));
#1311=DIRECTION('',(0.,1.,0.));
#1312=DIRECTION('',(1.,0.,0.));
#1313=DIRECTION('',(0.,-1.,0.));
#1314=DIRECTION('',(0.,0.,1.));
#1315=DIRECTION('',(0.,0.,-1.));
#1316=DIRECTION('',(-1.,0.,0.));
#1317=DIRECTION('',(0.,1.,0.));
#1318=DIRECTION('',(1.,0.,0.));
#1319=DIRECTION('',(0.,-1.,0.));
#1320=DIRECTION('',(0.,0.,1.));
#1321=DIRECTION('',(0.,0.,-1.));
#1322=DIRECTION('',(-1.,0.,0.));
#1323=DIRECTION('',(0.,1.,0.));
#1324=DIRECTION('',(1.,0.,0.));
#1325=DIRECTION('',(0.,-1.,0.));
#1326=DIRECTION('',(0.,0.,1.));
#1327=DIRECTION('',(0.,0.,-1.));
#1328=DIRECTION('',(0.,0.,1.));
#1329=DIRECTION('',(1.,0.,0.));
#1330=CARTESIAN_POINT('',(0.,0.,0.));
#1331=CARTESIAN_POINT('',(12.4874273354826,11.6842155284576,-0.002));
#1332=CARTESIAN_POINT('',(18.6749273354826,11.6842155284576,-0.002));
#1333=CARTESIAN_POINT('',(18.6749273354826,15.4342160598946,-0.002));
#1334=CARTESIAN_POINT('',(12.4874273354826,15.4342160598946,-0.002));
#1335=CARTESIAN_POINT('',(12.4874273354826,11.6842155284576,-0.002));
#1336=CARTESIAN_POINT('',(12.4874273354826,11.6842155284576,-0.001));
#1337=CARTESIAN_POINT('',(12.4874273354826,11.6842155284576,-0.002));
#1338=CARTESIAN_POINT('',(18.6749273354826,11.6842155284576,-0.002));
#1339=CARTESIAN_POINT('',(18.6749273354826,15.4342160598946,-0.002));
#1340=CARTESIAN_POINT('',(12.4874273354826,15.4342160598946,-0.002));
#1341=CARTESIAN_POINT('',(12.4874273354826,11.6842155284576,-0.001));
#1342=CARTESIAN_POINT('',(18.6749273354826,11.6842155284576,-0.001));
#1343=CARTESIAN_POINT('',(18.6749273354826,15.4342160598946,-0.001));
#1344=CARTESIAN_POINT('',(12.4874273354826,15.4342160598946,-0.001));
#1345=CARTESIAN_POINT('',(12.4874273354826,11.6842155284576,-0.002));
#1346=CARTESIAN_POINT('',(18.6749273354826,11.6842155284576,-0.002));
#1347=CARTESIAN_POINT('',(18.6749273354826,11.6842155284576,-0.002));
#1348=CARTESIAN_POINT('',(18.6749273354826,15.4342160598946,-0.002));
#1349=CARTESIAN_POINT('',(18.6749273354826,15.4342160598946,-0.002));
#1350=CARTESIAN_POINT('',(12.4874273354826,15.4342160598946,-0.002));
#1351=CARTESIAN_POINT('',(12.4874273354826,15.4342160598946,-0.002));
#1352=CARTESIAN_POINT('',(12.4874273354826,11.6842155284576,-0.002));
#1353=CARTESIAN_POINT('',(12.4874273354826,11.6842155284576,-0.001));
#1354=CARTESIAN_POINT('',(18.6749273354826,11.6842155284576,-0.001));
#1355=CARTESIAN_POINT('',(18.6749273354826,11.6842155284576,-0.001));
#1356=CARTESIAN_POINT('',(18.6749273354826,15.4342160598946,-0.001));
#1357=CARTESIAN_POINT('',(18.6749273354826,15.4342160598946,-0.001));
#1358=CARTESIAN_POINT('',(12.4874273354826,15.4342160598946,-0.001));
#1359=CARTESIAN_POINT('',(12.4874273354826,15.4342160598946,-0.001));
#1360=CARTESIAN_POINT('',(12.4874273354826,11.6842155284576,-0.001));
#1361=CARTESIAN_POINT('',(12.4874273354826,11.6842155284576,-0.002));
#1362=CARTESIAN_POINT('',(12.4874273354826,11.6842155284576,-0.001));
#1363=CARTESIAN_POINT('',(18.6749273354826,11.6842155284576,-0.002));
#1364=CARTESIAN_POINT('',(18.6749273354826,11.6842155284576,-0.001));
#1365=CARTESIAN_POINT('',(18.6749273354826,15.4342160598946,-0.002));
#1366=CARTESIAN_POINT('',(18.6749273354826,15.4342160598946,-0.001));
#1367=CARTESIAN_POINT('',(12.4874273354826,15.4342160598946,-0.002));
#1368=CARTESIAN_POINT('',(12.4874273354826,15.4342160598946,-0.001));
#1369=CARTESIAN_POINT('',(12.7061773354826,12.8092157941761,0.));
#1370=CARTESIAN_POINT('',(12.7061773354826,14.3092157941761,0.));
#1371=CARTESIAN_POINT('',(12.9561773354826,14.3092157941761,0.));
#1372=CARTESIAN_POINT('',(12.9561773354826,12.8092157941761,0.));
#1373=CARTESIAN_POINT('',(12.9561773354826,12.8092157941761,0.));
#1374=CARTESIAN_POINT('',(12.9561773354826,12.8092157941761,-0.001));
#1375=CARTESIAN_POINT('',(12.7061773354826,12.8092157941761,0.));
#1376=CARTESIAN_POINT('',(12.7061773354826,14.3092157941761,0.));
#1377=CARTESIAN_POINT('',(12.7061773354826,14.3092157941761,-0.001));
#1378=CARTESIAN_POINT('',(12.7061773354826,12.8092157941761,-0.001));
#1379=CARTESIAN_POINT('',(12.9561773354826,14.3092157941761,0.));
#1380=CARTESIAN_POINT('',(12.9561773354826,14.3092157941761,-0.001));
#1381=CARTESIAN_POINT('',(12.9561773354826,12.8092157941761,0.));
#1382=CARTESIAN_POINT('',(12.9561773354826,12.8092157941761,-0.001));
#1383=CARTESIAN_POINT('',(12.7061773354826,12.8092157941761,0.));
#1384=CARTESIAN_POINT('',(12.7061773354826,14.3092157941761,0.));
#1385=CARTESIAN_POINT('',(12.7061773354826,14.3092157941761,0.));
#1386=CARTESIAN_POINT('',(12.7061773354826,14.3092157941761,-0.001));
#1387=CARTESIAN_POINT('',(12.7061773354826,12.8092157941761,-0.001));
#1388=CARTESIAN_POINT('',(12.7061773354826,14.3092157941761,-0.001));
#1389=CARTESIAN_POINT('',(12.7061773354826,12.8092157941761,0.));
#1390=CARTESIAN_POINT('',(12.7061773354826,12.8092157941761,-0.001));
#1391=CARTESIAN_POINT('',(12.7061773354826,14.3092157941761,0.));
#1392=CARTESIAN_POINT('',(12.9561773354826,14.3092157941761,0.));
#1393=CARTESIAN_POINT('',(12.9561773354826,14.3092157941761,0.));
#1394=CARTESIAN_POINT('',(12.9561773354826,14.3092157941761,-0.001));
#1395=CARTESIAN_POINT('',(12.7061773354826,14.3092157941761,-0.001));
#1396=CARTESIAN_POINT('',(12.9561773354826,14.3092157941761,-0.001));
#1397=CARTESIAN_POINT('',(12.9561773354826,14.3092157941761,0.));
#1398=CARTESIAN_POINT('',(12.9561773354826,12.8092157941761,0.));
#1399=CARTESIAN_POINT('',(12.9561773354826,12.8092157941761,0.));
#1400=CARTESIAN_POINT('',(12.9561773354826,12.8092157941761,-0.001));
#1401=CARTESIAN_POINT('',(12.9561773354826,14.3092157941761,-0.001));
#1402=CARTESIAN_POINT('',(12.9561773354826,12.8092157941761,-0.001));
#1403=CARTESIAN_POINT('',(12.9561773354826,12.8092157941761,0.));
#1404=CARTESIAN_POINT('',(12.7061773354826,12.8092157941761,0.));
#1405=CARTESIAN_POINT('',(12.9561773354826,12.8092157941761,-0.001));
#1406=CARTESIAN_POINT('',(12.7061773354826,12.8092157941761,-0.001));
#1407=CARTESIAN_POINT('',(18.4561773354826,12.8092157941761,0.));
#1408=CARTESIAN_POINT('',(18.2061773354826,12.8092157941761,0.));
#1409=CARTESIAN_POINT('',(18.2061773354826,14.3092157941761,0.));
#1410=CARTESIAN_POINT('',(18.4561773354826,14.3092157941761,0.));
#1411=CARTESIAN_POINT('',(18.2061773354826,14.3092157941761,0.));
#1412=CARTESIAN_POINT('',(18.2061773354826,14.3092157941761,-0.001));
#1413=CARTESIAN_POINT('',(18.4561773354826,12.8092157941761,0.));
#1414=CARTESIAN_POINT('',(18.2061773354826,12.8092157941761,0.));
#1415=CARTESIAN_POINT('',(18.2061773354826,12.8092157941761,-0.001));
#1416=CARTESIAN_POINT('',(18.4561773354826,12.8092157941761,-0.001));
#1417=CARTESIAN_POINT('',(18.2061773354826,14.3092157941761,0.));
#1418=CARTESIAN_POINT('',(18.2061773354826,14.3092157941761,-0.001));
#1419=CARTESIAN_POINT('',(18.4561773354826,14.3092157941761,0.));
#1420=CARTESIAN_POINT('',(18.4561773354826,14.3092157941761,-0.001));
#1421=CARTESIAN_POINT('',(18.4561773354826,12.8092157941761,0.));
#1422=CARTESIAN_POINT('',(18.2061773354826,12.8092157941761,0.));
#1423=CARTESIAN_POINT('',(18.2061773354826,12.8092157941761,0.));
#1424=CARTESIAN_POINT('',(18.2061773354826,12.8092157941761,-0.001));
#1425=CARTESIAN_POINT('',(18.4561773354826,12.8092157941761,-0.001));
#1426=CARTESIAN_POINT('',(18.2061773354826,12.8092157941761,-0.001));
#1427=CARTESIAN_POINT('',(18.4561773354826,12.8092157941761,0.));
#1428=CARTESIAN_POINT('',(18.4561773354826,12.8092157941761,-0.001));
#1429=CARTESIAN_POINT('',(18.2061773354826,12.8092157941761,0.));
#1430=CARTESIAN_POINT('',(18.2061773354826,14.3092157941761,0.));
#1431=CARTESIAN_POINT('',(18.2061773354826,14.3092157941761,0.));
#1432=CARTESIAN_POINT('',(18.2061773354826,14.3092157941761,-0.001));
#1433=CARTESIAN_POINT('',(18.2061773354826,12.8092157941761,-0.001));
#1434=CARTESIAN_POINT('',(18.2061773354826,14.3092157941761,-0.001));
#1435=CARTESIAN_POINT('',(18.2061773354826,14.3092157941761,0.));
#1436=CARTESIAN_POINT('',(18.4561773354826,14.3092157941761,0.));
#1437=CARTESIAN_POINT('',(18.4561773354826,14.3092157941761,0.));
#1438=CARTESIAN_POINT('',(18.4561773354826,14.3092157941761,-0.001));
#1439=CARTESIAN_POINT('',(18.2061773354826,14.3092157941761,-0.001));
#1440=CARTESIAN_POINT('',(18.4561773354826,14.3092157941761,-0.001));
#1441=CARTESIAN_POINT('',(18.4561773354826,14.3092157941761,0.));
#1442=CARTESIAN_POINT('',(18.4561773354826,12.8092157941761,0.));
#1443=CARTESIAN_POINT('',(18.4561773354826,14.3092157941761,-0.001));
#1444=CARTESIAN_POINT('',(18.4561773354826,12.8092157941761,-0.001));
#1445=CARTESIAN_POINT('',(17.9561773354826,12.8092157941761,0.));
#1446=CARTESIAN_POINT('',(17.7061773354826,12.8092157941761,0.));
#1447=CARTESIAN_POINT('',(17.7061773354826,14.3092157941761,0.));
#1448=CARTESIAN_POINT('',(17.9561773354826,14.3092157941761,0.));
#1449=CARTESIAN_POINT('',(17.7061773354826,14.3092157941761,0.));
#1450=CARTESIAN_POINT('',(17.7061773354826,14.3092157941761,-0.001));
#1451=CARTESIAN_POINT('',(17.9561773354826,12.8092157941761,0.));
#1452=CARTESIAN_POINT('',(17.7061773354826,12.8092157941761,0.));
#1453=CARTESIAN_POINT('',(17.7061773354826,12.8092157941761,-0.001));
#1454=CARTESIAN_POINT('',(17.9561773354826,12.8092157941761,-0.001));
#1455=CARTESIAN_POINT('',(17.7061773354826,14.3092157941761,0.));
#1456=CARTESIAN_POINT('',(17.7061773354826,14.3092157941761,-0.001));
#1457=CARTESIAN_POINT('',(17.9561773354826,14.3092157941761,0.));
#1458=CARTESIAN_POINT('',(17.9561773354826,14.3092157941761,-0.001));
#1459=CARTESIAN_POINT('',(17.9561773354826,12.8092157941761,0.));
#1460=CARTESIAN_POINT('',(17.7061773354826,12.8092157941761,0.));
#1461=CARTESIAN_POINT('',(17.7061773354826,12.8092157941761,0.));
#1462=CARTESIAN_POINT('',(17.7061773354826,12.8092157941761,-0.001));
#1463=CARTESIAN_POINT('',(17.9561773354826,12.8092157941761,-0.001));
#1464=CARTESIAN_POINT('',(17.7061773354826,12.8092157941761,-0.001));
#1465=CARTESIAN_POINT('',(17.9561773354826,12.8092157941761,0.));
#1466=CARTESIAN_POINT('',(17.9561773354826,12.8092157941761,-0.001));
#1467=CARTESIAN_POINT('',(17.7061773354826,12.8092157941761,0.));
#1468=CARTESIAN_POINT('',(17.7061773354826,14.3092157941761,0.));
#1469=CARTESIAN_POINT('',(17.7061773354826,14.3092157941761,0.));
#1470=CARTESIAN_POINT('',(17.7061773354826,14.3092157941761,-0.001));
#1471=CARTESIAN_POINT('',(17.7061773354826,12.8092157941761,-0.001));
#1472=CARTESIAN_POINT('',(17.7061773354826,14.3092157941761,-0.001));
#1473=CARTESIAN_POINT('',(17.7061773354826,14.3092157941761,0.));
#1474=CARTESIAN_POINT('',(17.9561773354826,14.3092157941761,0.));
#1475=CARTESIAN_POINT('',(17.9561773354826,14.3092157941761,0.));
#1476=CARTESIAN_POINT('',(17.9561773354826,14.3092157941761,-0.001));
#1477=CARTESIAN_POINT('',(17.7061773354826,14.3092157941761,-0.001));
#1478=CARTESIAN_POINT('',(17.9561773354826,14.3092157941761,-0.001));
#1479=CARTESIAN_POINT('',(17.9561773354826,14.3092157941761,0.));
#1480=CARTESIAN_POINT('',(17.9561773354826,12.8092157941761,0.));
#1481=CARTESIAN_POINT('',(17.9561773354826,14.3092157941761,-0.001));
#1482=CARTESIAN_POINT('',(17.9561773354826,12.8092157941761,-0.001));
#1483=CARTESIAN_POINT('',(15.9561773354826,12.8092157941761,0.));
#1484=CARTESIAN_POINT('',(15.7061773354826,12.8092157941761,0.));
#1485=CARTESIAN_POINT('',(15.7061773354826,14.3092157941761,0.));
#1486=CARTESIAN_POINT('',(15.9561773354826,14.3092157941761,0.));
#1487=CARTESIAN_POINT('',(15.7061773354826,14.3092157941761,0.));
#1488=CARTESIAN_POINT('',(15.7061773354826,14.3092157941761,-0.001));
#1489=CARTESIAN_POINT('',(15.9561773354826,12.8092157941761,0.));
#1490=CARTESIAN_POINT('',(15.7061773354826,12.8092157941761,0.));
#1491=CARTESIAN_POINT('',(15.7061773354826,12.8092157941761,-0.001));
#1492=CARTESIAN_POINT('',(15.9561773354826,12.8092157941761,-0.001));
#1493=CARTESIAN_POINT('',(15.7061773354826,14.3092157941761,0.));
#1494=CARTESIAN_POINT('',(15.7061773354826,14.3092157941761,-0.001));
#1495=CARTESIAN_POINT('',(15.9561773354826,14.3092157941761,0.));
#1496=CARTESIAN_POINT('',(15.9561773354826,14.3092157941761,-0.001));
#1497=CARTESIAN_POINT('',(15.9561773354826,12.8092157941761,0.));
#1498=CARTESIAN_POINT('',(15.7061773354826,12.8092157941761,0.));
#1499=CARTESIAN_POINT('',(15.7061773354826,12.8092157941761,0.));
#1500=CARTESIAN_POINT('',(15.7061773354826,12.8092157941761,-0.001));
#1501=CARTESIAN_POINT('',(15.9561773354826,12.8092157941761,-0.001));
#1502=CARTESIAN_POINT('',(15.7061773354826,12.8092157941761,-0.001));
#1503=CARTESIAN_POINT('',(15.9561773354826,12.8092157941761,0.));
#1504=CARTESIAN_POINT('',(15.9561773354826,12.8092157941761,-0.001));
#1505=CARTESIAN_POINT('',(15.7061773354826,12.8092157941761,0.));
#1506=CARTESIAN_POINT('',(15.7061773354826,14.3092157941761,0.));
#1507=CARTESIAN_POINT('',(15.7061773354826,14.3092157941761,0.));
#1508=CARTESIAN_POINT('',(15.7061773354826,14.3092157941761,-0.001));
#1509=CARTESIAN_POINT('',(15.7061773354826,12.8092157941761,-0.001));
#1510=CARTESIAN_POINT('',(15.7061773354826,14.3092157941761,-0.001));
#1511=CARTESIAN_POINT('',(15.7061773354826,14.3092157941761,0.));
#1512=CARTESIAN_POINT('',(15.9561773354826,14.3092157941761,0.));
#1513=CARTESIAN_POINT('',(15.9561773354826,14.3092157941761,0.));
#1514=CARTESIAN_POINT('',(15.9561773354826,14.3092157941761,-0.001));
#1515=CARTESIAN_POINT('',(15.7061773354826,14.3092157941761,-0.001));
#1516=CARTESIAN_POINT('',(15.9561773354826,14.3092157941761,-0.001));
#1517=CARTESIAN_POINT('',(15.9561773354826,14.3092157941761,0.));
#1518=CARTESIAN_POINT('',(15.9561773354826,12.8092157941761,0.));
#1519=CARTESIAN_POINT('',(15.9561773354826,14.3092157941761,-0.001));
#1520=CARTESIAN_POINT('',(15.9561773354826,12.8092157941761,-0.001));
#1521=CARTESIAN_POINT('',(17.4561773354826,12.8092157941761,0.));
#1522=CARTESIAN_POINT('',(17.2061773354826,12.8092157941761,0.));
#1523=CARTESIAN_POINT('',(17.2061773354826,14.3092157941761,0.));
#1524=CARTESIAN_POINT('',(17.4561773354826,14.3092157941761,0.));
#1525=CARTESIAN_POINT('',(17.2061773354826,14.3092157941761,0.));
#1526=CARTESIAN_POINT('',(17.2061773354826,14.3092157941761,-0.001));
#1527=CARTESIAN_POINT('',(17.4561773354826,12.8092157941761,0.));
#1528=CARTESIAN_POINT('',(17.2061773354826,12.8092157941761,0.));
#1529=CARTESIAN_POINT('',(17.2061773354826,12.8092157941761,-0.001));
#1530=CARTESIAN_POINT('',(17.4561773354826,12.8092157941761,-0.001));
#1531=CARTESIAN_POINT('',(17.2061773354826,14.3092157941761,0.));
#1532=CARTESIAN_POINT('',(17.2061773354826,14.3092157941761,-0.001));
#1533=CARTESIAN_POINT('',(17.4561773354826,14.3092157941761,0.));
#1534=CARTESIAN_POINT('',(17.4561773354826,14.3092157941761,-0.001));
#1535=CARTESIAN_POINT('',(17.4561773354826,12.8092157941761,0.));
#1536=CARTESIAN_POINT('',(17.2061773354826,12.8092157941761,0.));
#1537=CARTESIAN_POINT('',(17.2061773354826,12.8092157941761,0.));
#1538=CARTESIAN_POINT('',(17.2061773354826,12.8092157941761,-0.001));
#1539=CARTESIAN_POINT('',(17.4561773354826,12.8092157941761,-0.001));
#1540=CARTESIAN_POINT('',(17.2061773354826,12.8092157941761,-0.001));
#1541=CARTESIAN_POINT('',(17.4561773354826,12.8092157941761,0.));
#1542=CARTESIAN_POINT('',(17.4561773354826,12.8092157941761,-0.001));
#1543=CARTESIAN_POINT('',(17.2061773354826,12.8092157941761,0.));
#1544=CARTESIAN_POINT('',(17.2061773354826,14.3092157941761,0.));
#1545=CARTESIAN_POINT('',(17.2061773354826,14.3092157941761,0.));
#1546=CARTESIAN_POINT('',(17.2061773354826,14.3092157941761,-0.001));
#1547=CARTESIAN_POINT('',(17.2061773354826,12.8092157941761,-0.001));
#1548=CARTESIAN_POINT('',(17.2061773354826,14.3092157941761,-0.001));
#1549=CARTESIAN_POINT('',(17.2061773354826,14.3092157941761,0.));
#1550=CARTESIAN_POINT('',(17.4561773354826,14.3092157941761,0.));
#1551=CARTESIAN_POINT('',(17.4561773354826,14.3092157941761,0.));
#1552=CARTESIAN_POINT('',(17.4561773354826,14.3092157941761,-0.001));
#1553=CARTESIAN_POINT('',(17.2061773354826,14.3092157941761,-0.001));
#1554=CARTESIAN_POINT('',(17.4561773354826,14.3092157941761,-0.001));
#1555=CARTESIAN_POINT('',(17.4561773354826,14.3092157941761,0.));
#1556=CARTESIAN_POINT('',(17.4561773354826,12.8092157941761,0.));
#1557=CARTESIAN_POINT('',(17.4561773354826,14.3092157941761,-0.001));
#1558=CARTESIAN_POINT('',(17.4561773354826,12.8092157941761,-0.001));
#1559=CARTESIAN_POINT('',(14.4561773354826,12.8092157941761,0.));
#1560=CARTESIAN_POINT('',(14.2061773354826,12.8092157941761,0.));
#1561=CARTESIAN_POINT('',(14.2061773354826,14.3092157941761,0.));
#1562=CARTESIAN_POINT('',(14.4561773354826,14.3092157941761,0.));
#1563=CARTESIAN_POINT('',(14.2061773354826,14.3092157941761,0.));
#1564=CARTESIAN_POINT('',(14.2061773354826,14.3092157941761,-0.001));
#1565=CARTESIAN_POINT('',(14.4561773354826,12.8092157941761,0.));
#1566=CARTESIAN_POINT('',(14.2061773354826,12.8092157941761,0.));
#1567=CARTESIAN_POINT('',(14.2061773354826,12.8092157941761,-0.001));
#1568=CARTESIAN_POINT('',(14.4561773354826,12.8092157941761,-0.001));
#1569=CARTESIAN_POINT('',(14.2061773354826,14.3092157941761,0.));
#1570=CARTESIAN_POINT('',(14.2061773354826,14.3092157941761,-0.001));
#1571=CARTESIAN_POINT('',(14.4561773354826,14.3092157941761,0.));
#1572=CARTESIAN_POINT('',(14.4561773354826,14.3092157941761,-0.001));
#1573=CARTESIAN_POINT('',(14.4561773354826,12.8092157941761,0.));
#1574=CARTESIAN_POINT('',(14.2061773354826,12.8092157941761,0.));
#1575=CARTESIAN_POINT('',(14.2061773354826,12.8092157941761,0.));
#1576=CARTESIAN_POINT('',(14.2061773354826,12.8092157941761,-0.001));
#1577=CARTESIAN_POINT('',(14.4561773354826,12.8092157941761,-0.001));
#1578=CARTESIAN_POINT('',(14.2061773354826,12.8092157941761,-0.001));
#1579=CARTESIAN_POINT('',(14.4561773354826,12.8092157941761,0.));
#1580=CARTESIAN_POINT('',(14.4561773354826,12.8092157941761,-0.001));
#1581=CARTESIAN_POINT('',(14.2061773354826,12.8092157941761,0.));
#1582=CARTESIAN_POINT('',(14.2061773354826,14.3092157941761,0.));
#1583=CARTESIAN_POINT('',(14.2061773354826,14.3092157941761,0.));
#1584=CARTESIAN_POINT('',(14.2061773354826,14.3092157941761,-0.001));
#1585=CARTESIAN_POINT('',(14.2061773354826,12.8092157941761,-0.001));
#1586=CARTESIAN_POINT('',(14.2061773354826,14.3092157941761,-0.001));
#1587=CARTESIAN_POINT('',(14.2061773354826,14.3092157941761,0.));
#1588=CARTESIAN_POINT('',(14.4561773354826,14.3092157941761,0.));
#1589=CARTESIAN_POINT('',(14.4561773354826,14.3092157941761,0.));
#1590=CARTESIAN_POINT('',(14.4561773354826,14.3092157941761,-0.001));
#1591=CARTESIAN_POINT('',(14.2061773354826,14.3092157941761,-0.001));
#1592=CARTESIAN_POINT('',(14.4561773354826,14.3092157941761,-0.001));
#1593=CARTESIAN_POINT('',(14.4561773354826,14.3092157941761,0.));
#1594=CARTESIAN_POINT('',(14.4561773354826,12.8092157941761,0.));
#1595=CARTESIAN_POINT('',(14.4561773354826,14.3092157941761,-0.001));
#1596=CARTESIAN_POINT('',(14.4561773354826,12.8092157941761,-0.001));
#1597=CARTESIAN_POINT('',(13.9561773354826,12.8092157941761,0.));
#1598=CARTESIAN_POINT('',(13.7061773354826,12.8092157941761,0.));
#1599=CARTESIAN_POINT('',(13.7061773354826,14.3092157941761,0.));
#1600=CARTESIAN_POINT('',(13.9561773354826,14.3092157941761,0.));
#1601=CARTESIAN_POINT('',(13.7061773354826,14.3092157941761,0.));
#1602=CARTESIAN_POINT('',(13.7061773354826,14.3092157941761,-0.001));
#1603=CARTESIAN_POINT('',(13.9561773354826,12.8092157941761,0.));
#1604=CARTESIAN_POINT('',(13.7061773354826,12.8092157941761,0.));
#1605=CARTESIAN_POINT('',(13.7061773354826,12.8092157941761,-0.001));
#1606=CARTESIAN_POINT('',(13.9561773354826,12.8092157941761,-0.001));
#1607=CARTESIAN_POINT('',(13.7061773354826,14.3092157941761,0.));
#1608=CARTESIAN_POINT('',(13.7061773354826,14.3092157941761,-0.001));
#1609=CARTESIAN_POINT('',(13.9561773354826,14.3092157941761,0.));
#1610=CARTESIAN_POINT('',(13.9561773354826,14.3092157941761,-0.001));
#1611=CARTESIAN_POINT('',(13.9561773354826,12.8092157941761,0.));
#1612=CARTESIAN_POINT('',(13.7061773354826,12.8092157941761,0.));
#1613=CARTESIAN_POINT('',(13.7061773354826,12.8092157941761,0.));
#1614=CARTESIAN_POINT('',(13.7061773354826,12.8092157941761,-0.001));
#1615=CARTESIAN_POINT('',(13.9561773354826,12.8092157941761,-0.001));
#1616=CARTESIAN_POINT('',(13.7061773354826,12.8092157941761,-0.001));
#1617=CARTESIAN_POINT('',(13.9561773354826,12.8092157941761,0.));
#1618=CARTESIAN_POINT('',(13.9561773354826,12.8092157941761,-0.001));
#1619=CARTESIAN_POINT('',(13.7061773354826,12.8092157941761,0.));
#1620=CARTESIAN_POINT('',(13.7061773354826,14.3092157941761,0.));
#1621=CARTESIAN_POINT('',(13.7061773354826,14.3092157941761,0.));
#1622=CARTESIAN_POINT('',(13.7061773354826,14.3092157941761,-0.001));
#1623=CARTESIAN_POINT('',(13.7061773354826,12.8092157941761,-0.001));
#1624=CARTESIAN_POINT('',(13.7061773354826,14.3092157941761,-0.001));
#1625=CARTESIAN_POINT('',(13.7061773354826,14.3092157941761,0.));
#1626=CARTESIAN_POINT('',(13.9561773354826,14.3092157941761,0.));
#1627=CARTESIAN_POINT('',(13.9561773354826,14.3092157941761,0.));
#1628=CARTESIAN_POINT('',(13.9561773354826,14.3092157941761,-0.001));
#1629=CARTESIAN_POINT('',(13.7061773354826,14.3092157941761,-0.001));
#1630=CARTESIAN_POINT('',(13.9561773354826,14.3092157941761,-0.001));
#1631=CARTESIAN_POINT('',(13.9561773354826,14.3092157941761,0.));
#1632=CARTESIAN_POINT('',(13.9561773354826,12.8092157941761,0.));
#1633=CARTESIAN_POINT('',(13.9561773354826,14.3092157941761,-0.001));
#1634=CARTESIAN_POINT('',(13.9561773354826,12.8092157941761,-0.001));
#1635=CARTESIAN_POINT('',(15.2061773354826,12.8092157941761,0.));
#1636=CARTESIAN_POINT('',(15.2061773354826,14.3092157941761,0.));
#1637=CARTESIAN_POINT('',(15.4561773354826,14.3092157941761,0.));
#1638=CARTESIAN_POINT('',(15.4561773354826,12.8092157941761,0.));
#1639=CARTESIAN_POINT('',(15.4561773354826,12.8092157941761,0.));
#1640=CARTESIAN_POINT('',(15.4561773354826,12.8092157941761,-0.001));
#1641=CARTESIAN_POINT('',(15.2061773354826,12.8092157941761,0.));
#1642=CARTESIAN_POINT('',(15.2061773354826,14.3092157941761,0.));
#1643=CARTESIAN_POINT('',(15.2061773354826,14.3092157941761,-0.001));
#1644=CARTESIAN_POINT('',(15.2061773354826,12.8092157941761,-0.001));
#1645=CARTESIAN_POINT('',(15.4561773354826,14.3092157941761,0.));
#1646=CARTESIAN_POINT('',(15.4561773354826,14.3092157941761,-0.001));
#1647=CARTESIAN_POINT('',(15.4561773354826,12.8092157941761,0.));
#1648=CARTESIAN_POINT('',(15.4561773354826,12.8092157941761,-0.001));
#1649=CARTESIAN_POINT('',(15.2061773354826,12.8092157941761,0.));
#1650=CARTESIAN_POINT('',(15.2061773354826,14.3092157941761,0.));
#1651=CARTESIAN_POINT('',(15.2061773354826,14.3092157941761,0.));
#1652=CARTESIAN_POINT('',(15.2061773354826,14.3092157941761,-0.001));
#1653=CARTESIAN_POINT('',(15.2061773354826,12.8092157941761,-0.001));
#1654=CARTESIAN_POINT('',(15.2061773354826,14.3092157941761,-0.001));
#1655=CARTESIAN_POINT('',(15.2061773354826,12.8092157941761,0.));
#1656=CARTESIAN_POINT('',(15.2061773354826,12.8092157941761,-0.001));
#1657=CARTESIAN_POINT('',(15.2061773354826,14.3092157941761,0.));
#1658=CARTESIAN_POINT('',(15.4561773354826,14.3092157941761,0.));
#1659=CARTESIAN_POINT('',(15.4561773354826,14.3092157941761,0.));
#1660=CARTESIAN_POINT('',(15.4561773354826,14.3092157941761,-0.001));
#1661=CARTESIAN_POINT('',(15.2061773354826,14.3092157941761,-0.001));
#1662=CARTESIAN_POINT('',(15.4561773354826,14.3092157941761,-0.001));
#1663=CARTESIAN_POINT('',(15.4561773354826,14.3092157941761,0.));
#1664=CARTESIAN_POINT('',(15.4561773354826,12.8092157941761,0.));
#1665=CARTESIAN_POINT('',(15.4561773354826,12.8092157941761,0.));
#1666=CARTESIAN_POINT('',(15.4561773354826,12.8092157941761,-0.001));
#1667=CARTESIAN_POINT('',(15.4561773354826,14.3092157941761,-0.001));
#1668=CARTESIAN_POINT('',(15.4561773354826,12.8092157941761,-0.001));
#1669=CARTESIAN_POINT('',(15.4561773354826,12.8092157941761,0.));
#1670=CARTESIAN_POINT('',(15.2061773354826,12.8092157941761,0.));
#1671=CARTESIAN_POINT('',(15.4561773354826,12.8092157941761,-0.001));
#1672=CARTESIAN_POINT('',(15.2061773354826,12.8092157941761,-0.001));
#1673=CARTESIAN_POINT('',(16.2061773354826,12.8092157941761,0.));
#1674=CARTESIAN_POINT('',(16.2061773354826,14.3092157941761,0.));
#1675=CARTESIAN_POINT('',(16.4561773354826,14.3092157941761,0.));
#1676=CARTESIAN_POINT('',(16.4561773354826,12.8092157941761,0.));
#1677=CARTESIAN_POINT('',(16.4561773354826,12.8092157941761,0.));
#1678=CARTESIAN_POINT('',(16.4561773354826,12.8092157941761,-0.001));
#1679=CARTESIAN_POINT('',(16.2061773354826,12.8092157941761,0.));
#1680=CARTESIAN_POINT('',(16.2061773354826,14.3092157941761,0.));
#1681=CARTESIAN_POINT('',(16.2061773354826,14.3092157941761,-0.001));
#1682=CARTESIAN_POINT('',(16.2061773354826,12.8092157941761,-0.001));
#1683=CARTESIAN_POINT('',(16.4561773354826,14.3092157941761,0.));
#1684=CARTESIAN_POINT('',(16.4561773354826,14.3092157941761,-0.001));
#1685=CARTESIAN_POINT('',(16.4561773354826,12.8092157941761,0.));
#1686=CARTESIAN_POINT('',(16.4561773354826,12.8092157941761,-0.001));
#1687=CARTESIAN_POINT('',(16.2061773354826,12.8092157941761,0.));
#1688=CARTESIAN_POINT('',(16.2061773354826,14.3092157941761,0.));
#1689=CARTESIAN_POINT('',(16.2061773354826,14.3092157941761,0.));
#1690=CARTESIAN_POINT('',(16.2061773354826,14.3092157941761,-0.001));
#1691=CARTESIAN_POINT('',(16.2061773354826,12.8092157941761,-0.001));
#1692=CARTESIAN_POINT('',(16.2061773354826,14.3092157941761,-0.001));
#1693=CARTESIAN_POINT('',(16.2061773354826,12.8092157941761,0.));
#1694=CARTESIAN_POINT('',(16.2061773354826,12.8092157941761,-0.001));
#1695=CARTESIAN_POINT('',(16.2061773354826,14.3092157941761,0.));
#1696=CARTESIAN_POINT('',(16.4561773354826,14.3092157941761,0.));
#1697=CARTESIAN_POINT('',(16.4561773354826,14.3092157941761,0.));
#1698=CARTESIAN_POINT('',(16.4561773354826,14.3092157941761,-0.001));
#1699=CARTESIAN_POINT('',(16.2061773354826,14.3092157941761,-0.001));
#1700=CARTESIAN_POINT('',(16.4561773354826,14.3092157941761,-0.001));
#1701=CARTESIAN_POINT('',(16.4561773354826,14.3092157941761,0.));
#1702=CARTESIAN_POINT('',(16.4561773354826,12.8092157941761,0.));
#1703=CARTESIAN_POINT('',(16.4561773354826,12.8092157941761,0.));
#1704=CARTESIAN_POINT('',(16.4561773354826,12.8092157941761,-0.001));
#1705=CARTESIAN_POINT('',(16.4561773354826,14.3092157941761,-0.001));
#1706=CARTESIAN_POINT('',(16.4561773354826,12.8092157941761,-0.001));
#1707=CARTESIAN_POINT('',(16.4561773354826,12.8092157941761,0.));
#1708=CARTESIAN_POINT('',(16.2061773354826,12.8092157941761,0.));
#1709=CARTESIAN_POINT('',(16.4561773354826,12.8092157941761,-0.001));
#1710=CARTESIAN_POINT('',(16.2061773354826,12.8092157941761,-0.001));
#1711=CARTESIAN_POINT('',(16.7061773354826,12.8092157941761,0.));
#1712=CARTESIAN_POINT('',(16.7061773354826,14.3092157941761,0.));
#1713=CARTESIAN_POINT('',(16.9561773354826,14.3092157941761,0.));
#1714=CARTESIAN_POINT('',(16.9561773354826,12.8092157941761,0.));
#1715=CARTESIAN_POINT('',(16.9561773354826,12.8092157941761,0.));
#1716=CARTESIAN_POINT('',(16.9561773354826,12.8092157941761,-0.001));
#1717=CARTESIAN_POINT('',(16.7061773354826,12.8092157941761,0.));
#1718=CARTESIAN_POINT('',(16.7061773354826,14.3092157941761,0.));
#1719=CARTESIAN_POINT('',(16.7061773354826,14.3092157941761,-0.001));
#1720=CARTESIAN_POINT('',(16.7061773354826,12.8092157941761,-0.001));
#1721=CARTESIAN_POINT('',(16.9561773354826,14.3092157941761,0.));
#1722=CARTESIAN_POINT('',(16.9561773354826,14.3092157941761,-0.001));
#1723=CARTESIAN_POINT('',(16.9561773354826,12.8092157941761,0.));
#1724=CARTESIAN_POINT('',(16.9561773354826,12.8092157941761,-0.001));
#1725=CARTESIAN_POINT('',(16.7061773354826,12.8092157941761,0.));
#1726=CARTESIAN_POINT('',(16.7061773354826,14.3092157941761,0.));
#1727=CARTESIAN_POINT('',(16.7061773354826,14.3092157941761,0.));
#1728=CARTESIAN_POINT('',(16.7061773354826,14.3092157941761,-0.001));
#1729=CARTESIAN_POINT('',(16.7061773354826,12.8092157941761,-0.001));
#1730=CARTESIAN_POINT('',(16.7061773354826,14.3092157941761,-0.001));
#1731=CARTESIAN_POINT('',(16.7061773354826,12.8092157941761,0.));
#1732=CARTESIAN_POINT('',(16.7061773354826,12.8092157941761,-0.001));
#1733=CARTESIAN_POINT('',(16.7061773354826,14.3092157941761,0.));
#1734=CARTESIAN_POINT('',(16.9561773354826,14.3092157941761,0.));
#1735=CARTESIAN_POINT('',(16.9561773354826,14.3092157941761,0.));
#1736=CARTESIAN_POINT('',(16.9561773354826,14.3092157941761,-0.001));
#1737=CARTESIAN_POINT('',(16.7061773354826,14.3092157941761,-0.001));
#1738=CARTESIAN_POINT('',(16.9561773354826,14.3092157941761,-0.001));
#1739=CARTESIAN_POINT('',(16.9561773354826,14.3092157941761,0.));
#1740=CARTESIAN_POINT('',(16.9561773354826,12.8092157941761,0.));
#1741=CARTESIAN_POINT('',(16.9561773354826,12.8092157941761,0.));
#1742=CARTESIAN_POINT('',(16.9561773354826,12.8092157941761,-0.001));
#1743=CARTESIAN_POINT('',(16.9561773354826,14.3092157941761,-0.001));
#1744=CARTESIAN_POINT('',(16.9561773354826,12.8092157941761,-0.001));
#1745=CARTESIAN_POINT('',(16.9561773354826,12.8092157941761,0.));
#1746=CARTESIAN_POINT('',(16.7061773354826,12.8092157941761,0.));
#1747=CARTESIAN_POINT('',(16.9561773354826,12.8092157941761,-0.001));
#1748=CARTESIAN_POINT('',(16.7061773354826,12.8092157941761,-0.001));
#1749=CARTESIAN_POINT('',(14.7061773354826,12.8092157941761,0.));
#1750=CARTESIAN_POINT('',(14.7061773354826,14.3092157941761,0.));
#1751=CARTESIAN_POINT('',(14.9561773354826,14.3092157941761,0.));
#1752=CARTESIAN_POINT('',(14.9561773354826,12.8092157941761,0.));
#1753=CARTESIAN_POINT('',(14.9561773354826,12.8092157941761,0.));
#1754=CARTESIAN_POINT('',(14.9561773354826,12.8092157941761,-0.001));
#1755=CARTESIAN_POINT('',(14.7061773354826,12.8092157941761,0.));
#1756=CARTESIAN_POINT('',(14.7061773354826,14.3092157941761,0.));
#1757=CARTESIAN_POINT('',(14.7061773354826,14.3092157941761,-0.001));
#1758=CARTESIAN_POINT('',(14.7061773354826,12.8092157941761,-0.001));
#1759=CARTESIAN_POINT('',(14.9561773354826,14.3092157941761,0.));
#1760=CARTESIAN_POINT('',(14.9561773354826,14.3092157941761,-0.001));
#1761=CARTESIAN_POINT('',(14.9561773354826,12.8092157941761,0.));
#1762=CARTESIAN_POINT('',(14.9561773354826,12.8092157941761,-0.001));
#1763=CARTESIAN_POINT('',(14.7061773354826,12.8092157941761,0.));
#1764=CARTESIAN_POINT('',(14.7061773354826,14.3092157941761,0.));
#1765=CARTESIAN_POINT('',(14.7061773354826,14.3092157941761,0.));
#1766=CARTESIAN_POINT('',(14.7061773354826,14.3092157941761,-0.001));
#1767=CARTESIAN_POINT('',(14.7061773354826,12.8092157941761,-0.001));
#1768=CARTESIAN_POINT('',(14.7061773354826,14.3092157941761,-0.001));
#1769=CARTESIAN_POINT('',(14.7061773354826,12.8092157941761,0.));
#1770=CARTESIAN_POINT('',(14.7061773354826,12.8092157941761,-0.001));
#1771=CARTESIAN_POINT('',(14.7061773354826,14.3092157941761,0.));
#1772=CARTESIAN_POINT('',(14.9561773354826,14.3092157941761,0.));
#1773=CARTESIAN_POINT('',(14.9561773354826,14.3092157941761,0.));
#1774=CARTESIAN_POINT('',(14.9561773354826,14.3092157941761,-0.001));
#1775=CARTESIAN_POINT('',(14.7061773354826,14.3092157941761,-0.001));
#1776=CARTESIAN_POINT('',(14.9561773354826,14.3092157941761,-0.001));
#1777=CARTESIAN_POINT('',(14.9561773354826,14.3092157941761,0.));
#1778=CARTESIAN_POINT('',(14.9561773354826,12.8092157941761,0.));
#1779=CARTESIAN_POINT('',(14.9561773354826,12.8092157941761,0.));
#1780=CARTESIAN_POINT('',(14.9561773354826,12.8092157941761,-0.001));
#1781=CARTESIAN_POINT('',(14.9561773354826,14.3092157941761,-0.001));
#1782=CARTESIAN_POINT('',(14.9561773354826,12.8092157941761,-0.001));
#1783=CARTESIAN_POINT('',(14.9561773354826,12.8092157941761,0.));
#1784=CARTESIAN_POINT('',(14.7061773354826,12.8092157941761,0.));
#1785=CARTESIAN_POINT('',(14.9561773354826,12.8092157941761,-0.001));
#1786=CARTESIAN_POINT('',(14.7061773354826,12.8092157941761,-0.001));
#1787=CARTESIAN_POINT('',(13.2061773354826,12.8092157941761,0.));
#1788=CARTESIAN_POINT('',(13.2061773354826,14.3092157941761,0.));
#1789=CARTESIAN_POINT('',(13.4561773354826,14.3092157941761,0.));
#1790=CARTESIAN_POINT('',(13.4561773354826,12.8092157941761,0.));
#1791=CARTESIAN_POINT('',(13.4561773354826,12.8092157941761,0.));
#1792=CARTESIAN_POINT('',(13.4561773354826,12.8092157941761,-0.001));
#1793=CARTESIAN_POINT('',(13.2061773354826,12.8092157941761,0.));
#1794=CARTESIAN_POINT('',(13.2061773354826,14.3092157941761,0.));
#1795=CARTESIAN_POINT('',(13.2061773354826,14.3092157941761,-0.001));
#1796=CARTESIAN_POINT('',(13.2061773354826,12.8092157941761,-0.001));
#1797=CARTESIAN_POINT('',(13.4561773354826,14.3092157941761,0.));
#1798=CARTESIAN_POINT('',(13.4561773354826,14.3092157941761,-0.001));
#1799=CARTESIAN_POINT('',(13.4561773354826,12.8092157941761,0.));
#1800=CARTESIAN_POINT('',(13.4561773354826,12.8092157941761,-0.001));
#1801=CARTESIAN_POINT('',(13.2061773354826,12.8092157941761,0.));
#1802=CARTESIAN_POINT('',(13.2061773354826,14.3092157941761,0.));
#1803=CARTESIAN_POINT('',(13.2061773354826,14.3092157941761,0.));
#1804=CARTESIAN_POINT('',(13.2061773354826,14.3092157941761,-0.001));
#1805=CARTESIAN_POINT('',(13.2061773354826,12.8092157941761,-0.001));
#1806=CARTESIAN_POINT('',(13.2061773354826,14.3092157941761,-0.001));
#1807=CARTESIAN_POINT('',(13.2061773354826,12.8092157941761,0.));
#1808=CARTESIAN_POINT('',(13.2061773354826,12.8092157941761,-0.001));
#1809=CARTESIAN_POINT('',(13.2061773354826,14.3092157941761,0.));
#1810=CARTESIAN_POINT('',(13.4561773354826,14.3092157941761,0.));
#1811=CARTESIAN_POINT('',(13.4561773354826,14.3092157941761,0.));
#1812=CARTESIAN_POINT('',(13.4561773354826,14.3092157941761,-0.001));
#1813=CARTESIAN_POINT('',(13.2061773354826,14.3092157941761,-0.001));
#1814=CARTESIAN_POINT('',(13.4561773354826,14.3092157941761,-0.001));
#1815=CARTESIAN_POINT('',(13.4561773354826,14.3092157941761,0.));
#1816=CARTESIAN_POINT('',(13.4561773354826,12.8092157941761,0.));
#1817=CARTESIAN_POINT('',(13.4561773354826,12.8092157941761,0.));
#1818=CARTESIAN_POINT('',(13.4561773354826,12.8092157941761,-0.001));
#1819=CARTESIAN_POINT('',(13.4561773354826,14.3092157941761,-0.001));
#1820=CARTESIAN_POINT('',(13.4561773354826,12.8092157941761,-0.001));
#1821=CARTESIAN_POINT('',(13.4561773354826,12.8092157941761,0.));
#1822=CARTESIAN_POINT('',(13.2061773354826,12.8092157941761,0.));
#1823=CARTESIAN_POINT('',(13.4561773354826,12.8092157941761,-0.001));
#1824=CARTESIAN_POINT('',(13.2061773354826,12.8092157941761,-0.001));
#1825=CARTESIAN_POINT('',(0.,0.,0.));
ENDSEC;
END-ISO-10303-21;
